<?xml version="1.0" encoding="UTF-8"?>
<svg id="Layer_1" xmlns="http://www.w3.org/2000/svg" version="1.1" viewBox="0 0 1565.64 2073.96">
  <!-- Generator: Adobe Illustrator 29.7.1, SVG Export Plug-In . SVG Version: 2.1.1 Build 8)  -->
  <defs>
    <style>
      .st0 {
        fill: #8f7068;
      }

      .st1 {
        fill: #30262c;
      }

      .st2 {
        fill: #edd6c4;
      }
    </style>
  </defs>
  <path class="st2" d="M1565.64,0v2073.96H0V0h1565.64ZM2.88,1243.51c0,52.75,0,105.57,0,158.32,0,25.15-.5,51.42-.06,77.06.06,3.48,1.81,6.96,1.67,10.07-.12,2.73-2.94,1.98-2.89,2.72.95,14.71,1.28,29.06,1.28,44v233.16c0,7.18,0,14.41,0,21.59.02,51.31-.07,102.69,0,154,0,6.22,0,12.49,0,18.71.04,35.96-.02,71.99,0,107.95,8.62.03,17.29-.06,25.91,0,22.39.14,56.12,2.73,77.07.09,1.58-.2,3.2.11,4.21-1.55,8.61-19.72,19.19-38.55,28.37-57.98,111.98-236.86,221.59-475.51,333.74-712.54,14.62-30.91,31.77-60.99,46.14-92.02,2.73-5.89,8.92-17.53,10.27-22.84,1.9-7.52-2.06-14.84-4.94-21.87-9.95-24.25-23.56-47.52-34.37-71.41,9.93-21.28,18.16-44.21,30.22-64.77,4.06-2.8,2.14-.91,3.56,1.41,1.62,2.65,4.07,6.5,5.33,9.13,56.64,118.34,108.35,240.55,162.11,360.32,2.18,4.86,4.78,11.39,8.88,14.86-.27.58.18,2.02,0,2.88l-1.44,1.44c-100.92,218-202.28,435.59-307.68,651.53l-.26,3.32c28.28.04,56.62-.03,84.9,0,3.35,0,6.72,0,10.07,0,24.92.04,49.91-.01,74.83,0,2.88,0,5.76,0,8.63,0,23.48.02,47.03,0,70.51,0,96.87.04,193.81.08,290.68,0,23.48-.02,47.03.03,70.51,0,3.35,0,6.72,0,10.07,0,24.44-.04,48.95.08,73.39,0,3.83-.01,7.68.02,11.51,0,18.44-.08,37.18-1.49,55.38-1.55,8.54-.03,17.7,2.91,26.64,1.54l-5.49-16.8c-100.86-212.17-201.96-424.28-302.45-636.61-.19-.39.19-1.05,0-1.44-.42-.89.42-3.71,0-4.32l179.88-385.72c8.42,19.24,18.57,37.73,27.4,56.79,1.52,3.27.87,8.41,1.38,9.42l-38.17,81.99v10.17c87.37,177.39,168.63,356.86,252.97,535.69,27.5,58.32,57.86,115.54,82.55,175.06,29.64,57.51,55.89,116.75,82.71,175.61,27.26.16,54.61.35,81.87.16,8.14-.06,16.33.04,24.47,0v-105.07c0-.48,0-.96,0-1.44,0-.96,0-1.92,0-2.88v-18.71c.02-51.31-.02-102.69,0-154,0-7.18,0-14.41,0-21.59.03-77.7-.01-155.46,0-233.16,0-45.07,0-90.22,0-135.29v-156.88c.04-413.5-.04-827.28,0-1240.64h-794.34c-1.92,0-3.84.01-5.76,0h-2.88c-1.44,0-2.88,0-4.32,0H27.35c2.32,3.8,11.01,1.44,15.06,1.53,2.44.05,4.64,1.14,7.09,1.23,2.65.1,6.39-3.23,8.79.12l259.13,569.97c1.35,2.48-.17,3.83-.83,5.74-1.84,5.28-6.12,10.83-8.26,15.48-6.69,14.57-13.85,29.24-20.52,43.52-2.63-.93-2.99-3.2-3.96-5.39C194.97,433.55,101.78,234.74,16.57,33.08c-3.86-9.14-6.57-18.9-10.74-27.94l7.12-3.69-10.07-.02v1242.08ZM25.9,4.3l-2.16-2.84-2.15,2.14,4.31.7ZM1420.3,2071.08l-402.9-849.15c-4.49,11.14-9.89,21.2-14.56,31.93-1.63,3.75-6.03,4.71-3.54,12.73,103.89,210.81,200.49,424.25,301.98,636.41,26.78,55.98,56.16,110.79,80.17,168.09h38.85ZM148.22,2071.08h38.13c.64,0,3.16-1.55,3.6-2.53,37.62-84.89,76.61-169.22,116.35-253.15,24.68-52.13,51.61-103.3,76.28-155.43,61.97-130.99,120.98-263.45,185.19-393.4.75-1.58.71-3.18.6-4.88-.13-2.13-15.82-38.29-17.94-38.29l-402.2,847.69Z"/>
  <path id="background" class="st0" d="M2.88,1243.51V1.43s10.07.02,10.07.02l-7.12,3.69c4.17,9.04,6.88,18.8,10.74,27.94,85.21,201.66,178.4,400.47,267.27,600.56.97,2.19,1.34,4.45,3.96,5.39-16.28,34.91-31.7,70.26-48.3,105.04-.79,2.59.7,4.86,1.56,7.18,6.14,16.56,16.54,37.09,24.6,53.12,2.47,4.9,6.08,12.8,8.83,17.03.9,1.39-.16,2.58,3.21,1.86-.01-1.83.35-3.64,1.15-5.3,15.06-31.27,30.49-62.46,44.91-94.01,3.27,5.23,6.28,10.69,8.88,16.3,6.73,14.51,12.98,33.63,20.53,47.11,1.29,2.31,1.87,4.36,5.12,4.23-16.15,34.32-33.94,67.96-48.83,102.91l48.85,107.22,4.58-3.31c18.47-47.11,44.56-92.55,64.02-138.91,3.73-8.88,9.64-17.89,7.25-27.96-15.53-33.45-32.08-67.02-47.1-100.41-10.29-22.89-19.04-46.87-30.66-69.43-1.02-1.98-.01-4.8-3.87-3.97.23-3.62-.78-5.78-1.79-9-4.78-15.25-21.58-51.22-29.85-65.2-1.14-1.92-1.35-4.17-4.33-3.51.66-1.91,2.18-3.26.83-5.74L58.28,4.31c-2.4-3.35-6.14-.02-8.79-.12-2.45-.09-4.66-1.17-7.09-1.23-4.05-.09-12.74,2.28-15.06-1.51h729.57c-9.18-.01-20.23,1.42-30.22,1.42-23.12.01-46.26,1.24-69.07,1.44-17.99.15-35.25-1.09-53.89.05-4.98.31-14.56-1.95-17.96.72-1.51,1.19-11.4,21.72-13.31,25.59-12.96,26.28-24.81,53.54-37.15,80.14L486.11,4.59c-2.19-1.93-26.41-2.28-30.73-1.78-2.03.23-3.92.08-4.9,2.38l67.57,145.93c-4.91,10.67-12.54,21.4-17.27,31.66L418.42,4.66c-4.35-3.4-8.71-.32-13.28-.27-12.72.13-25.48-.25-38.19-.06l107.93,238.91c-5.5,11.94-11.5,23.69-17.03,35.63-.8,4.9,3.98,14.35,7.28,18.02,7.05,21.72,18.5,41.97,27.74,62.9l17.99-31.63c.05.17,1.91.91,2.51,2.47,8.93,22.97,20.41,45.58,30.58,68.06,15.18,33.53,31.16,66.72,45.38,100.69l2.8,1.49,2.84-2.93c21.51-49.16,43.89-97.9,66.41-146.58,33.7-72.84,68.04-145.64,102.98-217.95,2.79-5.77,16.26-40.44,19.19-41.27l190.58,406.66,4.37.65,46.07-103.62,34.54-69.08c5.22,11.61,9.81,23.69,16.54,34.54,14.66-25.95,24.9-53.2,37.82-80.16.47-3.47-17.02-32.13-19.83-37.85,3.91.87,2.66-2.09,3.62-4.22,32.8-73.31,70.76-147.8,100.24-222.2,1.78-4.49,4.38-8.99,4.06-13.93h-49.65l-84.18,182.78c-5.36-11.45-10.48-23.09-15.83-34.54L1118.1,5.07c-.94-1.68-1.62-1.34-2.96-1.58-4.75-.85-16.5.68-22.16.84-3.91.11-6.01-2.98-10.06,1.51l-48.28,106.43c-4.36-9.31-10.21-18.42-14.63-27.83-12.43-26.45-23.78-53.43-37.22-79.38-4.08-4.04-19.71-.76-25.08-.68-14.01.2-29.59-1.14-43.3-.06-4.42.35-3.7-.71-3.53,4.32l-2.9-3.53c-20.69-1.13-41.76-2.45-62.59-2.28-2.75.02-5.85-1.32-5.02,2.93l-3.57-2.98c-20.69.01-41.39.29-62.08.21-2.64-.01-4.61-1.54-4.87-1.54h794.34c-.05,413.36.04,827.14,0,1240.63l-227.38-486.47c-2.81,2.45-5.12,7.72-6.8,11.17-11.23,23.02-23.09,46.2-32.01,70.07,87.89,183.06,172.17,367.83,258.75,551.55,1.28,2.71,4,10.75,7.44,10.55,0,45.07,0,90.22,0,135.29l-297.89-628.94-7.44,11.96-44.27,96.82c1.33,11.76,9.47,21.53,14.14,31.71,109.65,239.15,219.52,479.03,331.32,716.4.98,2.08,1.81,4.24,4.14,5.21,0,7.18,0,14.41,0,21.59l-354.02-762.8c-3.25-.6-2.28.16-3.19,1.83-3.75,6.91-7.86,15.82-11.43,23.1-9.91,20.18-19.31,41.17-27.14,62.17,96.48,207.52,196.06,412.8,294.64,619.26,31.15,65.23,61.48,132.32,92.67,196.6,2.22,4.57,4.5,10.64,8.48,13.84v18.71l-398.8-834.56-5.41-.03-30.37,68.29c17.35,42.84,38.93,83.78,58.55,125.57,92.28,196.5,184.57,393.02,276.94,589.44,25.13,53.42,51.92,106.14,74.62,160.68-27.26.19-54.61,0-81.87-.16-26.83-58.86-53.08-118.11-82.71-175.61-24.69-59.52-55.05-116.75-82.55-175.06-84.33-178.83-165.6-358.3-252.96-535.69v-10.17s38.17-81.99,38.17-81.99c.08.17,2.24-.58,3.33,1.76,13.83,29.72,27.24,59.64,42.02,88.9,2.76.7,4.76-5.21,5.77-7.16,10.53-20.33,19.89-42.43,27.77-63.71-22.25-46.36-42.91-93.85-66.15-139.76-1.4-2.77-9.61-19.11-10.6-19.63-2.67-1.42-4.43,11.74-7.18,12.93-4.76,15.58-19.25,35.73-23.04,51.82-.69,2.94-1.03,5.63-.7,8.64l-179.88,385.72c-12.27-17.68-21.72-43.88-31.66-64.77l125.58-279.55c14.67-33.06,33.29-65.06,46.72-98.64,1.51-3.78,5.49-14.11,4.7-17.61,3.31.72,3.11-1.62,4.09-3.75,9.7-21.12,18.82-42.51,28.77-63.51.26-1.73-7.16-17.77-8.6-21.04-10.81-24.43-24.02-50.79-35.97-74.84-3.12-6.28-6.01-12.78-10.6-18.19-11.33,22.37-20.55,46.14-30.93,69.08-52.73,116.52-107.84,232.22-159.71,349.04-5.26,11.85-11.34,23.42-16.59,35.25-2.14.57-5.18-6.53-6.05-8.34-39.26-81.9-74.55-166.25-112.39-248.84-18.11-39.52-37.44-91.64-60.7-125.67-.2-.29.18-3.79-.7-5.71-9.76-21.42-18.77-43.21-28.1-64.81-2.41-1.77-6.33,5.87-7.42,7.67-9.85,16.29-21.4,43.21-29.61,61.06-2.84,6.18-19.24,42.16-18.81,45.36,9.45,21.19,19.45,42.14,28.92,63.31.96,2.15.2,4.71,3.91,3.94-.63,1.01-1.48,1.98-1.19,3.31,37.48,76.8,70.61,155.85,105.98,233.7,22.15,48.75,44.82,103.99,69.28,150.92,1.15,2.2,1.66,4.08,4.36,4.99-10.86,22.59-22.35,45.05-33.1,67.64-4.1-3.47-6.7-10-8.88-14.86-53.75-119.77-105.47-241.98-162.11-360.32-1.26-2.63-3.7-6.48-5.33-9.13-1.42-2.32.5-4.21-3.56-1.41l.8-5.77-25.64-56.46c-4.8-7.67-4.12-16.05-10.75-2.87-1.18,2.35-1.4,5.17-2.54,7.54-23.01,47.7-47.63,94.69-70.44,142.5l27,59.26,7.44,12.67c13.01-31.46,29.55-61.34,43.91-92.1,10.81,23.89,24.42,47.16,34.37,71.41,2.89,7.04,6.85,14.35,4.94,21.87-1.35,5.31-7.54,16.95-10.27,22.84-14.37,31.03-31.51,61.12-46.14,92.02-112.15,237.03-221.76,475.68-333.74,712.54-9.18,19.43-19.76,38.26-28.37,57.98-1.01,1.66-2.62,1.35-4.21,1.55-20.95,2.64-54.68.05-77.07-.09,1.72-12.1,10.13-23.19,15.41-34.24,40.88-85.37,79.32-171.76,119.61-257.45,90.91-193.33,184.35-385.47,273.99-579.44l.83-7.18-30.73-65.79-4.23-.04c-6.97,15.98-13.5,32.31-21.06,48.02-119.37,248.05-235.5,497.35-356.34,744.63-6.07,12.42-11.45,27.44-18.3,39.26-1.32,2.28-1.73,4.41-5.09,4.27,0-6.22,0-12.49,0-18.71,3.33.72,3.09-1.63,4.09-3.75,88.54-188.87,179.23-376.69,270.56-564.23l122.6-263.19c-5.35-15.18-12.25-29.84-18.99-44.41-5.6-12.09-13.12-29.69-19.81-40.59-.77-1.25.75-2.87-3-2.07-31.57,69.12-62.19,138.77-96.26,206.7-82.83,182.52-165.8,364.64-251.76,545.54-1.8,3.8-4.16,9.45-7.43,11.99,0-7.18,0-14.41,0-21.59,3.09.56,5.18-6.44,6.3-8.82,103.15-219.04,204.39-440.91,305.7-661.42,12.93-28.14,28.56-55.43,39.04-84.53-11.86-27.65-24.19-55.23-37.1-82.4-3.21-6.76-7.59-17.2-11.41-23.09-.9-1.39.16-2.58-3.2-1.85-38.72,82.38-77.54,164.71-116.38,247.03-49.19,104.26-99.64,207.32-148.24,311.15-10.15,21.69-18.11,45.5-29.71,66.41-1.3,2.35-1.41,4.49-5,4.35,0-14.93-.33-29.28-1.28-44-.05-.74,2.77.01,2.89-2.72.14-3.12-1.61-6.59-1.67-10.07-.44-25.64.06-51.91.06-77.06,3.49.77,2.98-1.78,4.05-3.79,6.08-11.32,9.72-22.56,15.07-33.94,73.64-156.81,148.12-313.65,222.25-469.99,8.97-18.93,16.93-38.46,25.88-57.41-.36-3.29-1.71-6.41-2.87-9.47-6.5-17.26-19.34-43.02-28.19-59.6-1.6-3.01-4.67-12.15-8.05-7.65L2.88,1243.51ZM404.36,388.6L228.44,4.68l-107.57-.35,72.23,155.86c49.8,117.23,105.55,231.96,158.01,347.86,11.72,25.89,24.63,52.21,35.98,77.72,10.23,23.02,18.79,47.63,29.13,70.89.97,2.18,1.34,4.45,3.96,5.39l48.23,105.05c3,.68,1.94-1.24,2.75-2.92,18.14-37.41,37.08-74.82,50.9-114.03l-45.03-98.93-5.04-4.32.82-4.3-32.48-71.98c5.22-6.91,19.89-31.6,18.43-39.21l-35.72-78.81c-1.01-.68-2.58,2.42-3.14,3.31-4.48,7.11-11.85,24.24-15.55,32.66ZM1217.4,506.62L1446.09,5.23c-1.77-5.37-23.1-1.07-27.97-.97-25.89.54-52.18-.57-78.21.25l-175.75,384.09c-3.75-8.64-8.6-20.08-12.71-28.31-.74-1.48-3.23-7.12-5.26-6.22-8.4,19.41-19.12,38.14-27.35,57.57-1.59,3.75-7.06,15.69-7.61,18.31-2.69,12.91,14.59,31.51,15.51,45.01-6.76,16.29-14.12,32.37-21.33,48.47-3.24,7.23-10,14.53-8.89,23.49l-12.29,20.09c-6.65,14.96-12.99,30.08-19.78,44.98-4.92,10.81-20.55,34.29-16.95,45.07l52.64,110.05c2.83.66,2-1.1,2.86-2.8,6.15-12.14,10.7-24.69,16.29-37.03,9.86-21.74,20.57-43.13,29.72-65.17l-.69-2.94c4.08.05,5.42-5.37,6.77-8.34,9.48-20.93,17.62-42.48,27.64-63.17,1.02-2.07-2.3-2.4-2.75-3.33,4.41,1.11,5.29-2.22,6.77-5.43,7.81-16.97,16.31-34.2,23.47-51.39,2-4.81,7.51-16.65,7.17-20.89ZM1250.5,578.58c-11.79,26.16-24.3,52.56-35.98,79.16-1.01,2.3-4.5,5.43-5.34,8.34-4.88,18.33-21.08,40.68-25.64,57.85-.64,2.41-.94,4.73-.68,7.21l-4.11,3.73-46.06,102.05,74.65,164.79,3.96-2.49c13.03-31.57,30.57-61.51,43.78-92.94,1.8-4.27,2.91-8.79,3.91-13.3-14.41-32.23-30.42-62.32-45.24-94.19-1.13-2.44-.21-6.21-.67-7.2l30.22-67.64,48.23,99.3c2.93.68,1.94-1.2,2.83-2.83,6.26-11.45,10.7-23.82,16.34-35.54,3.89-8.09,18.98-33.33,18.97-40.06,0-2.04-.61-3.97-1.42-5.81-16.12-33.89-32.72-67.61-48.97-101.42,3.21.12,3.87-1.9,5.13-4.23,8.33-15.53,14.9-34.64,22.43-50.96,67.71-146.72,132.99-294.06,198.09-442.34,17.6-40.08,40.65-84.04,54.63-125.26,1.19-3.52,2.26-6.64,1.77-10.47h-49.65c-15.85,32.94-30.07,66.7-45.53,99.83-73.41,157.31-144.39,316.39-215.65,474.44ZM785.68,110.83c-2.62-2.27-2.39.88-2.99,2.04-13.7,26.94-25.26,55.49-38.01,82.87l-147.24,316.28.08,4.97,41.41,91.82,146.04-296.45,141.68,295.8,4.37.66,39.75-94.3c-46.16-104.42-94.61-207.97-142.64-311.55-12.89-27.8-26.29-60.32-40.87-86.08-.85-1.5-1.28-5.8-1.58-6.05ZM1119.53,292.17c-3.3-.69-2.29.36-3.22,1.83-4.46,7.13-7.81,20.46-11.57,28.69-4.63,10.17-21.26,38.11-22.53,46.57-2.24,14.95,17.21,37.34,20.09,52.43,3.43.8,2.32-.63,3.19-1.87,6.17-8.88,8.76-20.14,13.33-29.8,7.39-15.61,16.44-30.54,22.3-46.9-3.33-18.14-16.36-33.24-21.59-50.95ZM464.8,420.26c.61.9-1.4,3.74,2.14,2.87,2.32-1.12,19.26-39.58,20.29-44.65.35-1.74-.85-2.69-.84-2.83.03-1.1,2.36-3.57.84-5.73l-33.95-76.3c-2.57-.56-2.84.75-4.08,2.38-3.39,4.48-19.04,35.76-20.73,41.24-.43,1.4-1.4,2.62-.83,4.24,5.31,10.05,8.84,20.97,13.42,31.29,6.19,13.95,15.65,35.55,23.74,47.5ZM892.18,687.96c8.18-18.22,19.6-37.47,26.95-55.8,1.39-3.45,3.64-8.54,3.02-12.2-31.49-66.8-63.03-133.68-94.94-200.21-13.69-28.56-28.44-56.96-40.07-86.31l-3.62-.99c-26.14,51.78-49.26,105.1-74.28,157.45-20.74,43.4-44.53,85.49-62.9,130.09-.54,3.43,3.25,12.26,4.79,16.16,6.22,15.85,15.51,33.39,22.71,49.32.96,2.13.19,4.71,3.91,3.94-.16,3.49,1.44,6.48,2.63,9.61,14.22,37.72,35.88,77.14,52.78,114.16,16.34,35.81,30.96,74.55,49.03,109.34.83,1.59-.33,3.58,2.76,2.93,27.2-61.12,56.18-121.53,83.78-182.49,8.19-18.1,15.32-36.89,23.44-54.99ZM516.58,870.74l53.23-113.06-3.56-12.14-37.42-80.57c-7.55,5.2-7.21,13.83-10.51,21.12-11.05,24.36-24.57,49.17-35.22,72.76-3,6.64-5.91,13.64-8.33,20.54l38.61,89.51,3.19,1.84ZM1039.7,664.94c-4.95,1.18-36.57,82.29-42.15,92.6,2.65,8.73,8.21,16.25,11.94,23.96,13.11,27.11,25.83,59.33,40.19,85.01.86,1.54,2,4.8,4.37,4.24l38.46-83.88c2.44-5.7,1.14-11.39-1.02-16.86-13.32-33.63-34.91-67.48-47.93-101.74-.85-1.44-1.62-3.85-3.85-3.32ZM1164.14,1099.58c6.58-15.54,13.47-31.04,20.58-46.35,3.88-8.35,18.98-33.38,18.28-40.57l-75.53-163.49c-16.33,29.31-28.86,60.7-42.34,91.42l75.36,157.63,3.65,1.37ZM443.2,850.6l-3.96,2.49-73.7,159.62,3.76,11.84,35.81,75.02c2.24.53,2.96-1.91,3.87-3.31,12.3-18.94,18.18-44.81,31.63-63.35l42.89-91.05-40.29-91.28Z"/>
  <path class="st1" d="M837.5,1347.14c9.94,20.88,19.39,47.09,31.66,64.77.42.61-.42,3.43,0,4.32l-1.42.73,1.42.71c100.49,212.33,201.59,424.44,302.45,636.61l5.49,16.8c-8.94,1.36-18.1-1.57-26.64-1.54-18.2.06-36.93,1.47-55.38,1.55-102.15-217.91-204.4-435.69-307.65-653l-3.88-3.34-308.69,656.34c-28.28-.04-56.62.04-84.9,0l.26-3.32c105.4-215.94,206.77-433.53,307.68-651.53l1.44-1.44c.18-.86-.27-2.3,0-2.88,10.75-22.59,22.23-45.06,33.1-67.64,16.85-35.05,34.74-69.76,51.08-105.06,1.97,1.55,3.18,3.53,4.4,5.67,17.12,29.92,34.4,70.4,49.57,102.27Z"/>
  <path class="st1" d="M761.23,1.44l2.14,1.43.73-1.43c1.92,0,3.84,0,5.76,0,.26,0,2.23,1.53,4.87,1.54,20.69.08,41.39-.2,62.08-.21l3.57,2.98c21.92,47.06,43.61,94.31,66.19,141.05,3.58,7.41,8.79,15.03,12.54,22.72,15.47,31.74,28.83,64.82,46.46,95.3-1.12,4.98,12.8,32.18,15.83,38.86,4.86,10.72,11.11,21.46,15.83,31.66.49,1.05-.06,3.88,1.12,5.29l26.23,55.16-46.07,103.62-4.37-.65-190.58-406.66c-2.93.83-16.4,35.51-19.19,41.27-34.95,72.32-69.28,145.11-102.98,217.95-22.53,48.68-44.9,97.43-66.41,146.58l-2.84,2.93-2.8-1.49c-14.22-33.98-30.21-67.16-45.38-100.69-.87-3.28.94-4.93,1.99-7.36,7.82-18.11,15.69-36.63,23.92-54.53,5.32-11.58,11.87-22.98,17.27-34.54s10.38-24.49,15.83-35.98c18.32-38.61,38.92-76.28,56.3-115.34l2.69-2.68c18.59-46.35,44.21-91.7,63.14-137.63,1.07-2.6,2.08-4.79,1.61-7.73,9.99,0,21.04-1.44,30.22-1.44,1.44,0,2.88,0,4.32,0Z"/>
  <path class="st1" d="M1083.57,2071.08c-24.44.08-48.95-.04-73.39,0l-226.63-480.71-223.78,480.71c-24.92-.01-49.91.04-74.83,0l297.89-637.58,300.74,637.58Z"/>
  <path class="st1" d="M2.88,1535.68c3.6.14,3.7-2.01,5-4.35,11.6-20.91,19.56-44.72,29.71-66.41,48.6-103.84,99.05-206.9,148.24-311.15,38.84-82.32,77.66-164.64,116.38-247.03,3.36-.73,2.3.45,3.2,1.85,3.81,5.9,8.2,16.34,11.41,23.09,12.9,27.17,25.24,54.75,37.1,82.4-10.48,29.1-26.11,56.39-39.04,84.53-101.31,220.51-202.55,442.38-305.7,661.42-1.12,2.38-3.21,9.38-6.3,8.82v-233.16Z"/>
  <path class="st1" d="M1564.2,1534.24c-.01,77.7.03,155.46,0,233.16-2.33-.97-3.16-3.13-4.14-5.21-111.8-237.37-221.68-477.25-331.32-716.4-4.67-10.19-12.81-19.96-14.14-31.71l44.27-96.82,7.44-11.96,297.89,628.94Z"/>
  <path class="st1" d="M2.88,1790.43c3.28-2.54,5.63-8.2,7.43-11.99,85.96-180.9,168.93-363.02,251.76-545.54,34.07-67.94,64.68-137.58,96.26-206.7,3.75-.8,2.23.82,3,2.07,6.68,10.9,14.21,28.5,19.81,40.59,6.75,14.57,13.64,29.23,18.99,44.41l-122.6,263.19c-91.33,187.55-182.02,375.37-270.56,564.23-.99,2.12-.76,4.47-4.09,3.75-.07-51.31.02-102.69,0-154Z"/>
  <path class="st1" d="M1564.2,1942.99c-3.98-3.2-6.26-9.27-8.48-13.84-31.19-64.28-61.52-131.38-92.67-196.6-98.58-206.46-198.16-411.75-294.64-619.26,7.83-21,17.23-41.99,27.14-62.17,3.58-7.28,7.68-16.18,11.43-23.1.91-1.67-.06-2.42,3.19-1.83l354.02,762.8c-.02,51.31.02,102.69,0,154Z"/>
  <path class="st1" d="M28.78,2071.08c-8.62-.05-17.29.04-25.91,0-.01-35.96.04-71.99,0-107.95,3.36.14,3.77-1.98,5.09-4.27,6.85-11.83,12.23-26.84,18.3-39.26,120.84-247.28,236.97-496.58,356.34-744.63,7.56-15.71,14.1-32.03,21.06-48.02l4.23.04,30.73,65.79-.83,7.18c-89.64,193.97-183.08,386.11-273.99,579.44-40.29,85.69-78.73,172.08-119.61,257.45-5.29,11.04-13.69,22.13-15.41,34.24Z"/>
  <path class="st1" d="M1539.74,2071.08c-22.7-54.54-49.5-107.26-74.62-160.68-92.38-196.42-184.66-392.94-276.94-589.44-19.62-41.79-41.2-82.72-58.55-125.57l30.37-68.29,5.41.03,398.8,834.56c0,.96,0,1.92,0,2.88l-1.41.72,1.41.72v105.07c-8.13.03-16.33-.06-24.46,0Z"/>
  <path class="st1" d="M1000.11,2071.08c-23.48.03-47.03-.02-70.51,0l-146.06-307.97-144.62,307.97c-23.48,0-47.03.02-70.51,0l215.15-459.12,216.55,459.12Z"/>
  <path class="st0" d="M638.92,2071.08l144.62-307.97,146.06,307.97c-96.87.08-193.81.04-290.68,0Z"/>
  <path class="st1" d="M2.88,1243.51l228.15-483.52c3.39-4.5,6.45,4.64,8.05,7.65,8.84,16.57,21.68,42.34,28.19,59.6,1.15,3.06,2.51,6.19,2.87,9.47-8.96,18.94-16.91,38.48-25.88,57.41-74.13,156.35-148.61,313.19-222.25,469.99-5.34,11.38-8.99,22.62-15.07,33.94-1.08,2.01-.56,4.55-4.05,3.79,0-52.75,0-105.57,0-158.32Z"/>
  <path class="st1" d="M1564.2,1242.07v156.88c-3.44.19-6.16-7.84-7.44-10.55-86.59-183.72-170.86-368.49-258.75-551.55,8.92-23.88,20.78-47.05,32.01-70.07,1.68-3.45,3.99-8.72,6.8-11.17l227.38,486.47Z"/>
  <path class="st0" d="M1420.3,2071.08h-38.85c-24.01-57.3-53.39-112.11-80.17-168.09-101.49-212.16-198.1-425.59-301.98-636.41-2.48-8.02,1.91-8.97,3.54-12.73,4.67-10.73,10.07-20.79,14.56-31.93l402.9,849.15Z"/>
  <path class="st0" d="M148.22,2071.08l402.2-847.69c2.12,0,17.81,36.16,17.94,38.29.11,1.7.15,3.3-.6,4.88-64.21,129.96-123.22,262.41-185.19,393.4-24.66,52.13-51.59,103.3-76.28,155.43-39.74,83.92-78.73,168.26-116.35,253.15-.43.98-2.96,2.53-3.6,2.53h-38.13Z"/>
  <path class="st0" d="M1095.08,2071.08c-3.83.02-7.68-.01-11.51,0l-300.74-637.58-297.89,637.58c-3.35,0-6.72,0-10.07,0l308.69-656.34,3.88,3.34c103.24,217.31,205.5,435.09,307.65,653Z"/>
  <path class="st1" d="M316.58,580.02c2.98-.65,3.19,1.59,4.33,3.51,8.27,13.98,25.07,49.95,29.85,65.2,1.01,3.23,2.02,5.39,1.79,9-.25,3.96-3.86,11.28-5.5,15.37-6.84,17.02-15.62,34.09-23.28,50.84-14.43,31.56-29.85,62.74-44.91,94.01-.8,1.66-1.16,3.47-1.15,5.3-3.37.72-2.31-.47-3.21-1.86-2.76-4.23-6.37-12.13-8.83-17.03-8.06-16.03-18.47-36.56-24.6-53.12-.86-2.32-2.36-4.59-1.56-7.18,16.6-34.78,32.02-70.13,48.3-105.04,6.66-14.29,13.83-28.96,20.52-43.52,2.14-4.66,6.42-10.2,8.26-15.48Z"/>
  <path class="st1" d="M1049.04,1026.19c-.32-3.01.01-5.71.7-8.64,3.78-16.09,18.28-36.23,23.04-51.82,2.75-1.19,4.51-14.35,7.18-12.93.98.52,9.19,16.86,10.6,19.63,23.24,45.91,43.9,93.4,66.15,139.76-7.88,21.28-17.24,43.38-27.77,63.71-1.01,1.95-3,7.85-5.77,7.16-14.78-29.26-28.19-59.18-42.02-88.9-1.09-2.35-3.24-1.59-3.33-1.76-.51-1.01.13-6.15-1.38-9.42-8.83-19.05-18.98-37.54-27.4-56.79Z"/>
  <path class="st1" d="M489.26,1090.95c-14.36,30.76-30.9,60.64-43.91,92.1l-7.44-12.67-27-59.26c22.81-47.81,47.43-94.8,70.44-142.5,1.14-2.36,1.36-5.18,2.54-7.54,6.63-13.18,5.95-4.8,10.75,2.87l25.64,56.46-.8,5.77c-12.06,20.56-20.29,43.49-30.22,64.77Z"/>
  <path class="st0" d="M559.77,2071.08l223.78-480.71,226.63,480.71c-3.35,0-6.72,0-10.07,0l-216.55-459.12-215.15,459.12c-2.88,0-5.76,0-8.63,0Z"/>
  <polygon class="st0" points="25.9 4.3 21.59 3.61 23.74 1.47 25.9 4.3"/>
  <polygon class="st0" points="764.11 1.44 763.38 2.87 761.23 1.44 764.11 1.44"/>
  <path class="st0" d="M869.16,1417.66l-1.42-.71,1.42-.73c.19.39-.19,1.05,0,1.44Z"/>
  <path class="st0" d="M697.92,1416.22l1.44-1.44-1.44,1.44Z"/>
  <path class="st0" d="M1564.2,1966.02l-1.41-.72,1.41-.72c0,.48,0,.96,0,1.44Z"/>
  <path class="st2" d="M1014.5,951.34c.79,3.49-3.19,13.83-4.7,17.61-13.43,33.57-32.05,65.57-46.72,98.64l-125.58,279.55c-15.17-31.86-32.45-72.34-49.57-102.27-1.22-2.14-2.43-4.13-4.4-5.67-16.34,35.29-34.22,70.01-51.08,105.06-2.7-.91-3.21-2.78-4.36-4.99-24.46-46.93-47.13-102.16-69.28-150.92-35.37-77.85-68.5-156.9-105.98-233.7-.3-1.33.56-2.29,1.19-3.31.26-.42,1.85-.81,2.56-2.42,16.04-36.3,31.94-72.68,49.25-108.4,23.26,34.04,42.6,86.15,60.7,125.67,37.84,82.58,73.13,166.94,112.39,248.84.87,1.81,3.91,8.91,6.05,8.34,5.25-11.83,11.33-23.4,16.59-35.25,51.87-116.82,106.98-232.52,159.71-349.04l53.24,112.26Z"/>
  <path class="st1" d="M785.68,110.83c.3.26.73,4.55,1.58,6.05,14.58,25.76,27.98,58.27,40.87,86.08,48.04,103.58,96.48,207.13,142.64,311.55l-39.75,94.3-4.37-.66-141.68-295.8-146.04,296.45-41.41-91.82-.08-4.97,147.24-316.28c12.74-27.38,24.31-55.92,38.01-82.87.59-1.17.37-4.31,2.99-2.04Z"/>
  <path class="st2" d="M351.12,508.06c-52.46-115.91-108.21-230.63-158.01-347.86L120.88,4.33l107.57.35,175.92,383.91c-12.86,29.29-26.48,58.21-39.91,87.46-4.78,10.42-8.58,21.55-13.33,32Z"/>
  <path class="st2" d="M1164.16,388.6L1339.91,4.51c26.03-.81,52.32.29,78.21-.25,4.87-.1,26.2-4.4,27.97.97l-228.69,501.39c-14.56-35.49-33.58-69.11-49.21-104.06-2.01-4.5-2.53-10.48-4.04-13.95Z"/>
  <path class="st2" d="M1250.5,578.58c71.26-158.04,142.24-317.13,215.65-474.44,15.46-33.12,29.68-66.88,45.53-99.83h49.65c.49,3.82-.57,6.95-1.77,10.47-13.99,41.23-37.04,85.18-54.63,125.26-65.1,148.28-130.38,295.62-198.09,442.34-7.53,16.32-14.1,35.43-22.43,50.96-1.25,2.34-1.92,4.35-5.13,4.23-9.47-19.7-17.88-40.03-28.78-59.01Z"/>
  <path class="st1" d="M677.77,689.4c-3.72.78-2.94-1.8-3.91-3.94-7.2-15.92-16.49-33.46-22.71-49.32-1.53-3.91-5.33-12.73-4.79-16.16,18.37-44.6,42.15-86.69,62.9-130.09,25.02-52.35,48.14-105.66,74.28-157.45l3.62.99c11.62,29.35,26.37,57.75,40.07,86.31,31.9,66.53,63.45,133.41,94.94,200.21.62,3.67-1.64,8.75-3.02,12.2-7.36,18.32-18.78,37.58-26.95,55.8-3.06-1.9-4.79-5.56-6.5-8.61-8.22-14.62-14.99-30.92-22.28-46.08-5.04-10.48-10.9-21.4-15.83-30.22s-10.71-26.77-15.83-37.42c-15.92-33.13-32.75-65.97-48.21-99.32-14.79,33.1-29.82,66.45-45.33,99.32-5.85,12.41-11.4,25.05-17.27,37.42-5.23,11.03-10.56,20.69-15.83,31.66-8.8,18.35-18.25,36.48-27.34,54.69Z"/>
  <path class="st1" d="M1034.65,112.26c5.85,12.51,11.3,26.09,17.27,38.86,5.35,11.46,10.47,23.09,15.83,34.54,8.91,19.03,16.65,38.71,25.9,57.57,2.81,5.72,20.3,34.38,19.83,37.85-12.93,26.95-23.16,54.21-37.82,80.16-6.73-10.84-11.33-22.93-16.54-34.54-8.94-19.89-17.75-39.44-27.34-59.01-4.53-9.25-8.76-18.61-13.15-27.94-.97-2.06-1.11-4.04-4.12-3.72,1.49-7.44-12.04-30.93-15.83-38.86-18.75-39.3-37.77-78.56-56.12-118.02-1.87-4.02-2.98-9.9-5.06-14.37-8.73-18.77-18.92-36.89-26.6-56.16-.18-5.03-.89-3.97,3.53-4.32,13.71-1.08,29.29.26,43.3.06,5.36-.08,20.99-3.36,25.08.68,13.44,25.95,24.79,52.93,37.22,79.38,4.42,9.41,10.27,18.51,14.63,27.83Z"/>
  <path class="st1" d="M657.63,4.32c-7.66,22.93-19.17,44.61-29.1,66.67-.88,1.96-.67,4.3-1.12,5.29-18.1,40.15-38.21,80.5-57.56,119.46-4.19,8.44-16.76,30.65-15.83,38.86-3.72-.78-2.94,1.8-3.91,3.94-4.42,9.77-8.82,19.47-13.36,29.17-7.68,16.39-16.21,32.89-23.04,49.64-1.19,2.91-3.83,7.77-2.86,10.81l-17.99,31.63c-9.24-20.93-20.69-41.17-27.74-62.9-3.3-3.67-8.08-13.12-7.28-18.02,5.53-11.95,11.53-23.69,17.03-35.63,9.14-19.84,16.97-41.05,25.9-60.45,4.72-10.26,12.35-20.99,17.27-31.66,6.09-13.22,11.17-27.17,17.27-40.3,12.34-26.6,24.2-53.86,37.15-80.14,1.91-3.87,11.8-24.4,13.31-25.59,3.4-2.67,12.97-.42,17.96-.72,18.64-1.15,35.9.1,53.89-.05Z"/>
  <path class="st2" d="M892.18,687.96c-8.12,18.1-15.25,36.9-23.44,54.99-27.6,60.96-56.58,121.37-83.78,182.49-3.08.65-1.93-1.34-2.76-2.93-18.07-34.79-32.7-73.54-49.03-109.34-16.89-37.02-38.56-76.44-52.78-114.16-1.18-3.13-2.79-6.12-2.63-9.61,9.09-18.21,18.54-36.35,27.34-54.69l79.85,169.84,78.44-171.28c7.28,15.16,14.06,31.46,22.28,46.08,1.71,3.05,3.44,6.71,6.5,8.61Z"/>
  <path class="st1" d="M1182.86,731.14c7.36,15.11,14.09,30.55,21.06,45.86,2,4.39,7.58,11.16,9.16,14.59.46,1-.46,4.77.67,7.2,14.82,31.87,30.83,61.96,45.24,94.19-1,4.51-2.12,9.03-3.91,13.3-13.21,31.43-30.75,61.37-43.78,92.94l-3.96,2.49-74.65-164.79,46.06-102.05,4.11-3.73Z"/>
  <path class="st1" d="M387.09,731.14c15.01,33.39,31.57,66.96,47.1,100.41,2.39,10.07-3.53,19.08-7.25,27.96-19.46,46.36-45.55,91.8-64.02,138.91l-4.58,3.31-48.85-107.22c14.88-34.95,32.67-68.58,48.83-102.91,8.13-17.27,15.27-35,23.23-52.32,1.33-2.9,2.54-6.57,5.55-8.13Z"/>
  <path class="st1" d="M443.2,850.6l40.29,91.28-42.89,91.05c-13.45,18.54-19.33,44.41-31.63,63.35-.91,1.39-1.63,3.84-3.87,3.31l-35.81-75.02-3.76-11.84,73.7-159.62,3.96-2.49Z"/>
  <path class="st1" d="M1164.14,1099.58l-3.65-1.37-75.36-157.63c13.48-30.72,26-62.11,42.34-91.42l75.53,163.49c.7,7.19-14.4,32.22-18.28,40.57-7.11,15.31-14,30.81-20.58,46.35Z"/>
  <path class="st1" d="M1279.28,637.59c16.25,33.81,32.85,67.53,48.97,101.42.81,1.84,1.42,3.77,1.42,5.81,0,6.73-15.08,31.97-18.97,40.06-5.64,11.72-10.08,24.09-16.34,35.54-.89,1.63.1,3.51-2.83,2.83l-48.23-99.3v-4.32l-28.78-61.89c11.68-26.6,24.18-53,35.98-79.16,10.9,18.98,19.31,39.31,28.78,59.01Z"/>
  <path class="st1" d="M1096.52,546.92l51.8,112.26.69,2.94c-9.15,22.04-19.86,43.43-29.72,65.17-5.59,12.33-10.14,24.89-16.29,37.03-.86,1.7-.03,3.45-2.86,2.8l-52.64-110.05c-3.6-10.78,12.03-34.26,16.95-45.07,6.79-14.9,13.13-30.02,19.78-44.98l12.29-20.09Z"/>
  <path class="st1" d="M471.99,546.92l5.04,4.32,45.03,98.93c-13.82,39.21-32.76,76.62-50.9,114.03-.81,1.68.25,3.59-2.75,2.92l-48.23-105.05c.14-1.89-.2-3.88,0-5.76.48-.44,1.11-.87,1.44-1.44,19.45-33.5,32.66-73.3,50.37-107.94Z"/>
  <path class="st2" d="M1067.74,185.66L1151.93,2.88h49.65c.32,4.94-2.28,9.43-4.06,13.93-29.49,74.4-67.45,148.89-100.24,222.2-.95,2.13.3,5.09-3.62,4.22-9.25-18.86-17-38.54-25.9-57.57Z"/>
  <path class="st2" d="M474.87,243.23L366.94,4.32c12.71-.18,25.47.2,38.19.06,4.58-.05,8.94-3.13,13.28.27l82.35,178.13c-8.93,19.4-16.77,40.61-25.9,60.45Z"/>
  <path class="st1" d="M404.36,388.6c3.7-8.42,11.07-25.55,15.55-32.66.56-.89,2.13-3.99,3.14-3.31l35.72,78.81c1.46,7.61-13.22,32.3-18.43,39.21l-53.24,115.14c-11.34-25.51-24.26-51.83-35.98-77.72,4.75-10.45,8.55-21.58,13.33-32,13.43-29.24,27.05-58.16,39.91-87.46Z"/>
  <path class="st1" d="M1126.74,474.95c-.92-13.5-18.2-32.09-15.51-45.01.55-2.62,6.02-14.56,7.61-18.31,8.23-19.43,18.95-38.17,27.35-57.57,2.03-.9,4.52,4.74,5.26,6.22,4.11,8.23,8.96,19.67,12.71,28.31,1.5,3.47,2.02,9.45,4.04,13.95,15.63,34.96,34.65,68.58,49.21,104.06.34,4.24-5.17,16.09-7.17,20.89-7.17,17.19-15.66,34.42-23.47,51.39-1.48,3.21-2.36,6.54-6.77,5.43-15.16-30.95-27.75-63.49-42.93-94.51-2.3-4.71-5.18-13.77-10.31-14.87Z"/>
  <path class="st1" d="M1039.7,664.94c2.23-.53,3.01,1.88,3.85,3.32,13.03,34.26,34.62,68.11,47.93,101.74,2.16,5.47,3.46,11.16,1.02,16.86l-38.46,83.88c-2.37.56-3.51-2.7-4.37-4.24-14.36-25.68-27.09-57.91-40.19-85.01-3.73-7.71-9.29-15.22-11.94-23.96,5.58-10.31,37.2-91.41,42.15-92.6Z"/>
  <path class="st1" d="M516.58,870.74l-3.19-1.84-38.61-89.51c2.42-6.9,5.33-13.9,8.33-20.54,10.65-23.59,24.18-48.4,35.22-72.76,3.31-7.29,2.97-15.92,10.51-21.12l37.42,80.57,3.56,12.14-53.23,113.06Z"/>
  <path class="st2" d="M471.99,546.92c-17.71,34.65-30.92,74.44-50.37,107.94-.68.15-1.37.78-1.44,1.44-.2,1.88.14,3.86,0,5.76-2.63-.93-2.99-3.2-3.96-5.39-10.34-23.27-18.9-47.88-29.13-70.89l53.24-115.14,32.48,71.98-.82,4.3Z"/>
  <path class="st2" d="M1179.99,584.34c.45.93,3.78,1.26,2.75,3.33-10.02,20.69-18.16,42.24-27.64,63.17-1.35,2.97-2.69,8.39-6.77,8.34l-51.8-112.26c-1.11-8.96,5.65-16.26,8.89-23.49,7.21-16.11,14.57-32.18,21.33-48.47,5.13,1.1,8.01,10.17,10.31,14.87,15.18,31.02,27.77,63.56,42.93,94.51Z"/>
  <path class="st1" d="M554.02,951.34c-3.7.77-2.95-1.79-3.91-3.94-9.47-21.18-19.47-42.13-28.92-63.31-.44-3.19,15.97-39.18,18.81-45.36,8.21-17.85,19.75-44.78,29.61-61.06,1.09-1.8,5.01-9.44,7.42-7.67,9.32,21.6,18.34,43.39,28.1,64.81.88,1.93.5,5.42.7,5.71-17.3,35.72-33.21,72.11-49.25,108.4-.71,1.61-2.3,1.99-2.56,2.42Z"/>
  <path class="st2" d="M910.89,8.64c7.68,19.27,17.86,37.39,26.6,56.16,2.08,4.46,3.19,10.34,5.06,14.37-2.64.92-2.98,3.23-3.97,5.39-8.68,18.94-17.65,42.44-27.61,60.18-1.34,2.39-1.14,4.68-4.4,2.07-22.59-46.74-44.28-93.98-66.19-141.05-.83-4.25,2.27-2.91,5.02-2.93,20.83-.17,41.9,1.15,62.59,2.28l2.9,3.53Z"/>
  <path class="st1" d="M961.26,839.08c10.38-22.94,19.61-46.7,30.93-69.08,4.59,5.41,7.47,11.91,10.6,18.19,11.96,24.06,25.17,50.42,35.97,74.84,1.44,3.27,8.86,19.31,8.6,21.04-9.95,21.01-19.07,42.39-28.77,63.51-.98,2.13-.78,4.47-4.09,3.75l-53.24-112.26Z"/>
  <path class="st2" d="M726.7,2.88c.47,2.94-.54,5.13-1.61,7.73-18.94,45.93-44.56,91.28-63.14,137.63l-4.75-4.61c-9.72-22.52-20.87-44.48-29.79-67.35.45-.99.23-3.33,1.12-5.29,9.93-22.06,21.45-43.74,29.1-66.67,22.81-.19,45.95-1.43,69.07-1.44Z"/>
  <path class="st2" d="M518.04,151.12L450.47,5.19c.98-2.3,2.87-2.15,4.9-2.38,4.32-.5,28.54-.15,30.73,1.78l49.21,106.23c-6.09,13.13-11.18,27.08-17.27,40.3Z"/>
  <path class="st2" d="M1051.91,151.12c-5.96-12.77-11.41-26.35-17.27-38.86l48.28-106.43c4.05-4.49,6.15-1.4,10.06-1.51,5.66-.16,17.4-1.69,22.16-.84,1.34.24,2.02-.09,2.96,1.58l-66.18,146.05Z"/>
  <path class="st2" d="M352.56,657.74c3.86-.83,2.85,1.99,3.87,3.97,11.62,22.56,20.37,46.54,30.66,69.43-3.01,1.56-4.21,5.23-5.55,8.13-7.96,17.31-15.11,35.05-23.23,52.32-3.25.12-3.83-1.93-5.12-4.23-7.55-13.48-13.8-32.6-20.53-47.11-2.6-5.61-5.61-11.08-8.88-16.3,7.66-16.75,16.44-33.82,23.28-50.84,1.64-4.09,5.25-11.41,5.5-15.37Z"/>
  <path class="st2" d="M1243.3,719.63v4.32l-30.22,67.64c-1.58-3.43-7.16-10.2-9.16-14.59-6.97-15.31-13.7-30.75-21.06-45.86-.27-2.48.04-4.8.68-7.21,4.56-17.18,20.77-39.52,25.64-57.85.84-2.91,4.33-6.04,5.34-8.34l28.78,61.89Z"/>
  <path class="st2" d="M1059.11,326.71l-34.54,69.08-26.23-55.16c-1.17-1.41-.63-4.24-1.12-5.29l34.54-67.64c9.59,19.57,18.4,39.12,27.34,59.01Z"/>
  <path class="st2" d="M536.75,267.7c3.33-.72,3.1,1.63,4.09,3.75,10.1,21.57,19.51,43.51,29.01,65.33-8.22,17.9-16.09,36.42-23.92,54.53-1.05,2.43-2.86,4.08-1.99,7.36-10.17-22.48-21.65-45.09-30.58-68.06-.61-1.56-2.46-2.3-2.51-2.47-.97-3.04,1.68-7.9,2.86-10.81,6.83-16.75,15.36-33.24,23.04-49.64Z"/>
  <path class="st1" d="M1119.53,292.17c5.23,17.72,18.26,32.82,21.59,50.95-5.86,16.36-14.91,31.29-22.3,46.9-4.57,9.66-7.16,20.92-13.33,29.8-.87,1.25.24,2.67-3.19,1.87-2.88-15.09-22.33-37.48-20.09-52.43,1.27-8.47,17.89-36.4,22.53-46.57,3.75-8.23,7.1-21.56,11.57-28.69.92-1.47-.08-2.52,3.22-1.83Z"/>
  <path class="st1" d="M464.8,420.26c-8.09-11.95-17.55-33.55-23.74-47.5-4.59-10.33-8.11-21.25-13.42-31.29-.57-1.62.4-2.84.83-4.24,1.69-5.48,17.34-36.76,20.73-41.24,1.23-1.63,1.51-2.94,4.08-2.38l33.95,76.3c1.52,2.16-.81,4.63-.84,5.73l-21.59,44.62Z"/>
  <path class="st2" d="M486.38,375.64c0,.15,1.2,1.1.84,2.83-1.03,5.07-17.96,43.54-20.29,44.65-3.55.88-1.53-1.96-2.14-2.87l21.59-44.62Z"/>
  <path class="st0" d="M998.67,197.18c-3.02-.57-5.58,6.56-6.48,8.64-7.11,16.47-13.13,33.6-20.58,49.93-1.02,2.23-5.79,7.97-6.04,9.07-17.64-30.47-31-63.56-46.46-95.3-3.75-7.7-8.96-15.31-12.54-22.72,3.27,2.6,3.06.31,4.4-2.07,9.96-17.74,18.93-41.25,27.61-60.18.99-2.16,1.33-4.47,3.97-5.39,18.36,39.46,37.37,78.72,56.12,118.02Z"/>
  <path class="st0" d="M661.94,148.24l-2.69,2.68c-17.38,39.06-37.99,76.73-56.3,115.34-9.22-20.01-17.06-40.76-26.31-60.76-1.12-2.41-3.68-10.12-6.79-9.77,19.35-38.96,39.46-79.3,57.56-119.46,8.91,22.87,20.07,44.84,29.79,67.35l4.75,4.61Z"/>
  <path class="st2" d="M569.85,195.74c3.11-.35,5.67,7.36,6.79,9.77,9.25,19.99,17.09,40.75,26.31,60.76-5.45,11.49-10.34,24.23-15.83,35.98l-8.43-13.88-24.67-53.77c-.93-8.21,11.64-30.42,15.83-38.86Z"/>
  <path class="st2" d="M998.67,197.18c3.79,7.93,17.31,31.42,15.83,38.86-10.46,20.45-18.65,41.92-28.89,62.49-1.11,2.23-1.16,4.23-4.2,5.15-3.03-6.68-16.95-33.88-15.83-38.86.25-1.11,5.02-6.84,6.04-9.07,7.45-16.33,13.47-33.46,20.58-49.93.9-2.08,3.45-9.22,6.48-8.64Z"/>
  <path class="st0" d="M1014.5,236.04c3.01-.32,3.15,1.66,4.12,3.72,4.39,9.33,8.62,18.69,13.15,27.94l-34.54,67.64c-4.72-10.21-10.97-20.94-15.83-31.66,3.04-.92,3.09-2.92,4.2-5.15,10.24-20.57,18.43-42.04,28.89-62.49Z"/>
  <path class="st0" d="M554.02,234.6l24.67,53.77,8.43,13.88c-5.4,11.56-11.95,22.97-17.27,34.54-9.5-21.82-18.91-43.76-29.01-65.33-.99-2.12-.76-4.47-4.09-3.75,4.54-9.7,8.94-19.39,13.36-29.17.96-2.13.19-4.71,3.91-3.94Z"/>
  <path class="st0" d="M720.94,603.05l64.02,133.86,62.61-133.86c4.93,8.82,10.79,19.74,15.83,30.22l-78.44,171.28-79.85-169.84c5.27-10.98,10.6-20.63,15.83-31.66Z"/>
  <path class="st0" d="M831.75,565.63c-3.43-.1-3.8,1.87-5.04,4.32-13.98,27.71-25.08,57.55-37.88,85.88-.83,1.85-2.87,8.46-5.27,7.68l-45.34-97.88c15.5-32.87,30.54-66.22,45.33-99.32,15.46,33.35,32.28,66.19,48.21,99.32Z"/>
  <path class="st2" d="M738.21,565.63l45.34,97.88c2.4.78,4.44-5.84,5.27-7.68,12.81-28.32,23.9-58.17,37.88-85.88,1.24-2.45,1.6-4.42,5.04-4.32,5.12,10.65,11.08,28.92,15.83,37.42l-62.61,133.86-64.02-133.86c5.87-12.37,11.42-25.01,17.27-37.42Z"/>
  <path class="st0" d="M1243.3,721.06v-1.44,1.44Z"/>
  <path class="st0" d="M420.19,656.3c.07-.66.76-1.29,1.44-1.44-.33.57-.96,1-1.44,1.44Z"/>
</svg>