<?xml version="1.0" encoding="UTF-8"?>
<svg id="Layer_1" xmlns="http://www.w3.org/2000/svg" version="1.1" viewBox="0 0 1039.32 1558.8">
  <!-- Generator: Adobe Illustrator 29.8.2, SVG Export Plug-In . SVG Version: 2.1.1 Build 3)  -->
  <defs>
    <style>
      .st0 {
        fill: #dfdbd7;
      }

      .st1 {
        fill: #211a1f;
      }
    </style>
  </defs>
  <path class="st0" d="M1039.32,0v1558.8H0V0h1039.32ZM356.99,16.56l-39.95,164.88c-1.43.09-1.62-1.31-2.01-2.31-1.72-4.38-1.74-9.2-2.87-13.69-4.61-18.23-9.57-35.66-13.96-53.72-5.4-22.24-10.34-44.25-15.83-66.25-1.82-7.28-3.2-18.24-5.77-24.47-.41-.99-.56-2.4-2.01-2.31-.73-.02-.2,4.32-.4,5.37-3.3,17.2-8.4,34.45-12.59,51.49-7.09,28.9-14.99,58.67-22.47,88.4-1.2,4.78-1.44,10.82-3.24,15.48-.32.84-1.07,1.76-1.97,1.98L193.98,17.28l-40.31,164.16c-.92-.82-1.73-1.68-2.18-2.86-6.22-16.43-9.34-38.94-13.51-56.32-8.04-33.5-16.12-66.66-24.47-100.08l-1.93-4.17c-1.02,15.67-6.95,30.68-10.64,45.88-13.62,56.11-27.42,112.17-41.51,167.99-3.44,13.64-7.26,27.8-10.28,41.56-2.31,10.52,1.05,13.78,3.23,23.02,5.92,25.09,11.98,50.12,17.62,75.25.49,2.19,2.07,4.16,1.28,7.01l40.31-165.6c1.64-.34,1.15.17,1.61.92.66,1.07,2.04,4.98,2.35,6.28,11.33,48.4,22.51,97.31,34.85,145.84.43,1.7.59,10.36,3.27,10.41l41.39-164.17,39.23,165.61c.94.02,4.92-16.04,4.85-18.19,13.45-46.49,20.84-94.63,34.91-140.76.56-1.84-.33-3.94,2-5.21l3.77,12.05c9.19,47.3,23.22,95.07,33.96,141.12.79,3.39.47,9.04,4,10.99.87-.33-.3-1.61-.16-2.42.17-.97,1.63-1.79,1.78-3.07,2-17.22,8.19-36.76,12.26-54.08,6.42-27.29,12.4-55.63,19.64-83.31,1.94-7.42,4.44-14.67,5.74-22.36.2-1.21-.44-1.23,1.41-1.08l38.51,166.32,40.62-163.85,2.2-.32,38.51,162.73c4.16-8.44,5.2-17.95,7.59-26.97,5.09-19.19,10.1-38,14.75-57.25,4.64-19.2,8.34-38.93,13.45-57.82l6.3-22.12c1.65,8.67,4.2,17.16,6.31,25.73,10.84,44.01,20.45,88.23,32.03,132.12,1.59,1.14.42,6.62,2.33,6.31s2.69-5.22,3.07-7.02c10.3-49.22,21.91-98.9,34.17-147.97.19-.74,2.57-10.33,4.14-8.45,2.52,11.98,5.22,24.17,8.13,36.15,3.24,13.32,10,32.41,9.86,45.52,0,.45,1.47.34,1.87,1.77.42,1.52.1,3.16.48,4.59,6.65,24.92,12.94,50.42,19.06,75.25.26,1.04-.02,3.77.55,3.77l39.23-167.04c2.64-3.12,4.28,12.31,4.48,13.15.77,3.12,2.83,7.46,3.38,9.69,10.83,43.59,19.53,86.36,30.45,129.26.56,2.19,2.47,11.3,4.49,11.35l41.03-164.89c.63,8.16,3.89,15.81,5.8,23.73,1.99,8.2,3.47,16.61,5.39,24.84,2.58,11.07,3.51,21.06,6.24,31.92,6.03,24,12.27,47.61,16.21,71.62l4.88,17.09c2.38.54,1.19-3.08,1.77-5.07.44-1.53,2.07-2.9,2.37-4.1,3.12-12.14,4.98-25.34,8.26-37.81.45-1.7,2.48-4.86,2.58-6.07.08-1.06-1.82-2.2-1.28-3.07.5-.8,1.79-.49,2.66-4.18,6.66-28.21,12.24-56.88,19.4-84.99,1.66-6.52,2.9-13.18,4.9-19.59,2.09-.15.75,3.16,1.09,4.55,1.6,6.6,5.09,15.09,6.33,22.64.26,1.55-.55,3.47-.47,3.67.32.84,2.79,4.38,3.43,6.99,3.08,12.59,4.99,26.29,8.13,38.67.55,2.17,1.56,4.1,2.65,6.03l-1.35,2.02c1.47,1.51,2.17,3.15,2.81,5.12,6.3,19.67,11.1,44.81,15.46,65.18.65,3.02,3.11,5.82,1.86,10.02,1.84.29,1.12-.15,1.51-1.01,5.93-13.32,8.89-32.17,12.36-46.68,4.04-16.91,8.01-33.52,11.88-50.03,3.3-14.05,5.97-28.73,9.71-42.85.48-1.82,2.6-2.89,2.67-3.21.33-1.63-.21-3.57.18-5.45.35-1.7,3.07-12.48,3.79-12.77.31-.13,1.94-.3,1.79.49l38.16,160.79c.94.17,1.23,0,1.75-.76.43-.61,2.06-7.95,2.52-9.72,5.44-21.11,9.98-42,15.33-63.15,1.56-6.19,4.63-12.89,5.55-19.65,1.55-11.27-2.28-20.31-4.83-31.1-18.25-77.28-39.69-154.76-58.08-232.78-.42-1.77-1.05-4.31-2.2-5.72l-41.02,162.72c-1.67.56-.99-1.63-1.06-2.53-1-11.71-5.28-25.06-7.96-35.96-6.43-26.13-12.95-52.52-19.14-78.77-3.34-14.16-6.98-28.5-10.49-42.78-.26-1.07-.82-1.96-1.64-2.68l-39.95,162-2.02-.17-39-161.83c0,1.26.14,2.54-.17,3.79-8.85,35.19-18.32,70.44-26.86,105.61-3.55,14.62-7.95,30.56-10.92,45.24-.65,3.21-1.09,6.53-.91,9.82l-1.81.43-42.1-165.61c-.06,1.98.2,3.98-.18,5.95-2.56,13.38-7.06,27.47-10.31,40.81-6.91,28.44-13.16,58.51-19.92,85.91-2.39,9.68-4.3,19-6.48,28.8-.16.7-1.14,4.36-2.34,4.13-.72-.21-4.07-12.41-4.52-14.21-10.5-42.36-20.89-85.37-31.28-127.83-1.89-7.71-4.83-15.65-4.88-23.56-1.72-.61-2.27,3.14-2.55,4.28-4.1,16.48-8.09,34.23-11.46,50.45-6.59,31.7-16.32,62.96-23.24,94.11-.6,2.7-.5,5.8-1.24,8.84-.38,1.57-1.77,7.16-3.6,7.2l-40.67-164.88c.53,6.32-1.88,12-3.29,17.96-1.67,7.12-2.53,13.37-4.1,20.37-8.78,38.98-19.45,77.58-28.4,116.31-.34,1.48-1.9,11.66-2.73,11.68l-5.25-14.98c-5.75-27.93-13.2-56.23-20.09-84.24-4.96-20.15-10.27-39.62-15.15-59.72-.27-1.1.09-4.5-.53-4.52-3.16,5.31-3.45,11.83-4.86,17.47-7.32,29.27-14.32,58.91-21.46,87.97-4.13,16.81-10.06,35.23-13.47,52.05-.39,1.91,1.57,5.53-3.03,5.23l-39.59-165.59ZM1008.36,545.76c1.23-2.32,1.02-5.34,1.62-7.39,4.38-14.88,7.87-29.5,11.68-44.47,4.7-18.45,11.9-39.3,8.34-57.97-4.63-24.28-11.36-48.93-17.49-73.23-1.5-5.95-3.84-11.74-4.5-17.82.08,6.29-3.06,11.91-4.51,17.81-4.78,19.41-9.63,38.51-14.01,57.99-2.94,13.06-6.78,25.93-3.26,39.6,6.04,23.51,12.98,47.21,17.42,71.13l4.72,14.35ZM450.8,403.01c-.72-1.6.14-3.52-.27-5.17-3.69-15.17-8.2-30.37-12.03-45.56l-.88-6.67c-1.38,3.31-1.96,6.98-2.64,10.54-5.03,26.54-12.73,53.26-19.14,79.64-6.08,25.04-10.95,50.07-17.3,74.85-.14.56-1.1,2.76-1.96,2.71l-39.59-165.59-40.66,165.59c-3.12-8.03-5.24-17.25-7.4-25.72-11.38-44.7-21.76-89.67-32.38-134.65-.43-1.8.43-6.32-2.33-5.94-.63,12.02-4.9,24.08-7.75,35.81-9.8,40.43-19.29,80.7-28.44,121.31-.43,1.91-1.65,6.95-2.51,8.27-.46.72.05,1.27-1.62.93-.89-6.03-2.81-11.82-4.25-17.72-7.09-28.99-13.57-58.26-20.39-86.88-4.43-18.58-10.47-36.98-13.79-55.9-.33-1.85,1.27-6.74-1.87-6.55-2.52,16.96-8.07,32.96-12.06,49.5-9.01,37.37-15.74,74.26-25.54,111.96-.43,1.66-1.03,2.9-1.48,4.88-.26,1.12-.02,1.84-1.21.69l-41.76-166.31c1.53,5.45-1.7,9.36-2.67,13.53-13.25,56.87-26.22,112.51-41.44,168.79-1.28,4.74-2.71,10.59-4.18,15.12-1.33,4.08-.49,2.7-.81,6.51-.63,7.48-6.36,22.32-8.31,30.58-2.2,9.33-7.02,27.72-5.76,36.37.68,4.65,3.15,12.11,4.33,17.27,9.98,43.76,21.9,86.63,32.53,130.18.8,3.27,2.64,7.64,3.1,10.57,1.17,7.36-4.38,25.53-6.34,33.63-8.77,36.2-20.03,71.7-28.58,108.21-1.75,7.47-6.69,24.28-5.98,30.84.89,8.19,5.99,23.9,8.18,32.85,8.7,35.55,18.33,71.72,26.97,106.94,7.55,30.77,14.27,61.86,21.93,92.54,1.94,7.78,5.55,17.13,6.86,24.82.42,2.45.06,4.94.17,7.39l41.39-166.32c1.43-.29,1.05.53,1.4,1.45,1.01,2.65,2.4,7.13,3.1,9.89,8.2,32.06,13.93,64.96,21.81,97.7,4.26,17.7,10.35,34.99,13.94,52.9.3,1.51-1.55,4.2,1.13,3.66.04-1.73-.19-3.5.18-5.23,5.01-23.77,11.47-48.08,17.28-72,5.64-23.25,11.66-46.51,17.61-69.5,1.75-6.74,2.93-13.65,4.89-20.32l40.67,167.76,41.02-167.77h2.15s37.43,167.04,37.43,167.04c2.55.59,1.08-2.92,1.48-4.63,4.45-19.07,10.95-38.02,15.58-57.13,7.89-32.54,13.4-69.7,23.64-100.91.41-1.25.07-4.2.69-4.36,1.68-.46.81,1.53,1.3,2.68,1.31,3.09,2.39,6.83,3.3,10.72,4.3,18.4,9.33,38.12,12.35,56.04,1.11,6.59,5.28,16.25,6.98,23.25,3.05,12.53,5.28,25.39,8.26,37.82,1.89,7.87,3.94,16.41,6.27,23.39,1.35,4.05.74,9.65,3.29,13.14l40.31-167.04,3.79,10.61c3.25,18.99,8.9,37.32,13.07,56.05,1.55,6.95,3.98,15.41,5.06,22.35.19,1.21-.68,4.03-.6,4.23.26.63,1.63.54,1.97,1.53,1.16,3.42,2.1,10.93,3.16,14.86,3.42,12.75,6.93,25.38,10.07,38.17,1.74,7.1,4.98,13.94,4.16,21.41,1.07.03,1.05-2.56,1.21-3.46,8.65-49.47,22.97-100.65,35.31-149.72.68-2.69,1.02-14.51,4.85-14.59l41.39,166.33c.19-1.96-.3-4.18.04-6.08.54-3.02,2.07-8.05,2.9-11.5,11.27-46.9,22.24-93.91,34.33-140.62.78-3.02.03-6.61,2.69-9.56l39.95,167.76,6.26-22.89c8.88-40.13,18.81-79.9,28.46-119.85,1.73-7.18,4.11-14.23,5.03-21.61l2.34-1.98,39.96,166.33,39.95-166.33,41.37,166.32,38.87-167.76c3.53-.91,2.31,3.58,2.94,6.06,9.61,37.68,18.49,76.96,27.98,113.97,3.57,13.93,6.4,28.1,9.55,42.16.11.48,1.58,4.8,2.7,3.41-1.16-5.12,1.59-8.42,2.67-12.81,4.56-18.45,8.56-37.03,12.92-55.48.67-2.83,3.75-9.25,3.75-9.79,0-1.25-1.12-2.85-.6-4.95.13-.53,1.25-.41,1.4-1,13.87-55.32,28.16-113.09,40.5-169.6.48-2.21,2.19-5.17,2.54-7.54,1.14-7.73-5.08-28.41-7.19-37.11-9.83-40.59-21.57-81.15-30.21-121.63-2.06-9.63-3.64-9.49-1.11-20.18,8.21-34.67,16.99-68.39,25.32-102.83,3.68-15.19,8.57-30.52,11.73-45.86,2.66-12.87.07-14.86-2.62-26.53-16.96-73.57-35.34-146.61-52.94-219.93-2.11-8.81-5.15-17.65-6.16-26.6l-1.52,1-12.36,48.83c-8.86,35-16.37,70.87-25.15,105.88-.27,1.06-2.4,7.44-2.73,7.72-2.36.57-1.14-2.11-1.59-3.79-13.49-49.29-25.84-102.26-37.09-152.26-.64-2.83-.67-6.5-1.61-9.55-1.95-2.5-1.31,5.4-1.45,5.99-4.71,19.62-11.24,41.02-16.28,61.45-5.63,22.83-9.96,47.53-15.55,70.98-1.9,7.97-5.56,16.74-6.81,24.76-.12.76.75,2.21.51,2.42h-2.15c-3.32-20.47-10.09-40.19-14.95-60.29-7.48-30.95-13.81-62.09-21.25-93.22-.94-3.94-3.49-6.64-1.96-11.36-1.4-.08-.39,2.02-.85,3.09-.43,1-1.52,1.46-1.86,2.47-4.29,12.76-7.31,29.6-10.79,43.21-7.69,30.12-14.4,61.71-21.95,92.53-1.89,7.73-5.28,15.65-5.58,23.58-.91,1.18-2.57-2.2-2.69-2.69-1.2-5.01-2.03-9.04-3.24-14.05-10.7-43.99-21.58-86.76-32.02-130.69-1.5-6.3-1.75-12.95-4.52-18.88l-38.86,166.31c-1.29.24-1.48-.29-1.96-1.3-2.44-5.08-2.56-11.16-3.96-16.89-9.52-38.93-18.88-77.82-28.1-116.61-2.34-9.84-6.28-19.94-6.28-30.08-1.7-.62-2.3,3.2-2.55,4.28-11,48.02-22.7,96.56-35.4,144.58-1.48,5.58-1.84,11.48-4.52,16.72l-40.3-166.31c-1.39.65-.54,3.63-.88,5.23-4.31,20.33-11.74,41.37-16.91,61.56-6.54,25.53-11.49,52.77-17.5,78.97-1.51,6.59-3.93,13.11-5.01,19.84-1.56.28-2.43-1.42-2.72-2.67-5.72-24.99-12.58-50-18.69-74.91-2.59-10.55-3.65-22.72-7.87-32.05ZM32.38,349.92c-1.14-1.22-1.25.17-1.41,1.09-3.84,22.37-11.17,43.76-16.39,65.7-2.43,10.22-4.58,20.49-6.72,30.77,6.06,24.25,11.03,48.9,16.82,73.23,1.03,4.35,3.06,8.93,3.94,13.34.32,1.59-.18,7.71,1.25,8.13l1.8-.02c-.24-.82-.72-1.37-.59-2.33.61-4.62,3.01-10.78,4.12-15.38,5.5-22.8,11.41-45.3,16.82-68.14.63-2.66,2.58-6.18,2.76-8.8.45-6.76-7.3-28.75-9.26-36.92-3.27-13.63-5.88-27.62-8.99-41.41-1.45-6.43-4.11-12.33-4.14-19.26ZM31.67,680.4c-2.54-.59-1.09,2.92-1.48,4.64-4.73,20.87-11.27,41.37-16.34,62.14-2.06,8.46-3.02,18.83-5.55,26.87-.47,1.48-1.6,1.36-1.71,1.76-.47,1.71,5.56,26.03,6.54,30.07,5.02,20.54,10.75,40.92,15.5,61.54.66,2.86.08,6.17,1.97,8.84.64,0,.31-2.03.69-2.92,5.51-13.04,7.77-29.75,11.23-43.49,2.48-9.86,13.44-44.92,12.15-52.56-.31-1.82-2.18-5.31-2.66-7.41-5.75-24.97-11.69-50.3-17.53-75.35-1.09-4.69-3.77-9.01-2.8-14.12ZM1008.37,680.4c-2.8-.49-.51,2.55-.83,4.5-1.05,6.34-4.01,13.47-5.44,19.82-5.22,23.06-9.65,46.49-16.08,69.46-.18.66-1.27.28-1.45,1.57-.94,7.02,3.94,18.94,5.65,26.14,4.71,19.8,8.43,39.87,13.29,59.42,1.29,5.18,3.37,10.3,3.79,15.66l6.64-22.15c4.23-22.12,11.86-43.5,16.55-65.53.93-4.38,2.17-8.8,1.46-13.32-1.69-10.76-6.99-24.59-9.66-35.58-4.55-18.73-8.43-39.13-13.76-56.92-.29-.98-.15-2.06-.17-3.07ZM31.67,1015.2c-1.85-.15-1.21-.13-1.42,1.08-3.66,21.19-11.2,44.15-16.4,64.97-.89,3.57-1.96,7.27-2.83,10.85-1.33,5.45-4.83,16.64-5.19,21.42-.02.28,1.17.25,1.5,1.3,6.47,21.02,10.68,44.53,15.89,66.16,2.14,8.87,4.54,17.88,7.37,26.48,1.3-4.46,1.76-9.2,2.88-13.69,6.01-24.26,12.35-48.37,17.82-72.9.56-2.5,2.55-6.69,2.65-8.87.21-4.36-4.41-15.41-5.55-20.28-5.43-23.33-10.65-46.84-15.47-69.48-.47-2.2-2.04-4.21-1.25-7.03ZM1025.49,1143.19c.3-.66-.51-1.58-.35-2.24,2.36-10.1,5.84-19.95,6.96-30.3-6.35-24.27-13.27-48.22-18.01-72.73l-6.43-22.72c-.1,1.25.23,2.71-.05,3.91-6.23,26.7-13.29,53-19.56,79.79-.84,3.6-2.91,8.11-3.37,11.74-.7,5.56,4.06,16.44,5.53,22.43,3.05,12.52,5.23,24.84,8.26,37.1,2.76,11.15,6.36,22.28,9.01,33.46.35,1.49.15,3.01.17,4.51,2.26.39,1.09-.7,1.42-1.78,5.89-18.95,8.63-46.22,16.41-63.19ZM235.35,1180.08h-2.15s-37.39,163.12-37.39,163.12l-2.19,1.04c-5.06-20.14-10.55-40.22-15.51-60.45-7.48-30.58-14.77-60.85-22.45-91.3-.76-3,0-6.74-1.99-9.52-1.75,1.51-2.4,4.73-3.04,7.04-1.23,4.46-1.38,11.65-2.85,15.12-.4.94-1.52.89-1.55.97-.1.28-.15,3.36-.63,5.51-5,22.43-11.29,44.78-16.59,66.92-4.27,17.86-7.35,36.42-11.88,54.36-1.15,4.54-3.03,9.58-4.14,14.23-2.39.59-1.18-2.74-1.6-4.51-12.47-52.72-26.14-105.53-39.96-158.02-.33-1.24-.17-2.53-.18-3.79-1.49.19-1.1,2.7-1.49,3.77-.98,2.7-.37,1.23-.8,4.3-.36,2.64-1.82,5.7-2.43,8.45-5.44,24.63-11.73,48.75-17.52,73.2-2.31,9.78,1.39,13.74,3.35,22.41,7.62,33.66,15.25,67.02,23.4,100.43,10.62,43.53,21.34,87.18,32.36,130.35,1.5,5.87,4.34,11.67,4.15,17.81,1-.19,1.5-1.29,1.8-2.15,5.11-14.56,7.78-34.53,11.32-49.88,7.42-32.21,15.54-64.2,23.5-96.01.61-2.44,1.94-14.91,4.05-15.4,1.43-.12,1.4.89,1.74,1.85,1.46,4.1,1.38,8.05,2.37,12.01,12.27,48.8,25.25,97.64,36.14,146.74.23,1.02.64,2.58,1.83,2.84l38.52-166.32,41.38,164.89,2.22-.43c1.94-11.71,5.7-23.1,8.39-34.68,8.8-37.93,16.56-76.14,25.55-114.12,1.19-5.02,3.56-9.91,4.15-14.94h2.15c-.53,7.83,2.92,14.9,4.71,22.29,4.46,18.35,8.6,36.99,12.73,54.94,1.75,7.61,3.24,14.58,5.09,21.55,4.44,16.71,7.9,33.58,12.23,50.4,1.29,5.02,4.3,10.37,4.1,15.7l3.43-9.88c10.06-42.77,21.55-86.89,31.28-130.71,1.72-7.74,5.85-15.3,4.88-23.56l2,1.23c12.83,46.33,22.51,93.08,34.52,139.71l3.9,19.86,2.4,1.2,40.66-162.72c-.36,3.72,1.84,7.22,2.71,10.61,11.18,43.42,21.96,87.44,32.05,131.37,1.4,6.11,3.76,12.89,4.73,19.02.24,1.52.06,3.07.1,4.59,3.02.1,1.87-3.24,2.34-5.21,11.66-48.84,22.57-98.36,35.25-146.9.34-1.3,3.19-11.33,3.79-11.32,2.87,3.08,2.49,7.61,3.41,10.97,12.52,45.32,22.83,91.97,33.69,137.66l5.72,15.51,38.52-165.6,5.22,14.93c9.82,43.88,19.87,87.33,30.58,131.41.98,4.03,3.09,8.91,3.83,12.74.33,1.73-1.37,3.66.67,5.07l41.03-162.72,41.74,163.44,39.59-162.72,41.37,162.72,39.96-164.88c1.53-.38,1.07,1.17,1.41,2.15,4.44,12.81,6.19,27.54,9.04,40.55.11.5,1.23.52,1.36,1.06,8.7,35.72,17.06,71.67,25.77,107.28.82,3.35,1.48,7.5,1.64,10.97l2.83-.05c1.52-7.14,3.11-14.29,4.91-21.37,7.88-31.09,16.03-62.27,23.75-93.6,2.08-8.46,3.27-16.71,5.29-24.95,8.1-33.12,16.09-66.21,23.84-99.27,2.38-10.16,6.76-16.68,4.8-27.45-.2-1.11-1.07-1.9-1.31-3.01-6.06-28.2-13.07-54.73-20.04-82.91-.31-1.25-.18-2.53-.17-3.79-1.03-.17-.98,1.25-1.21,2.01-4.02,12.8-6.38,27.06-9.75,39.94-2.94,11.27-7.19,22.95-9.87,34.05-.5,2.06.89,7.21-2.19,7.53l1.39,1.02-19.76,78.9c-3-.05-2.86-8.03-3.43-10.25-12.48-48.74-23.23-97.38-35.24-146.19-.36-1.46-1.31-4.88-1.81-6.11-.43-1.05-.18-1.08-1.62-.9l-39.95,164.87-39.95-166.3-40.67,165.6-39.94-163.45h-2.15c-.04,3.04-.76,6.71-1.52,9.65-9.13,35.64-17,71.68-25.88,107.31-3.39,13.59-6.66,29.75-11.13,42.87-.19.55-1.4,5.12-2.49,3.62.59-2.42-.99-4.12-1.41-6.16-9-43.73-20.3-87.66-30.48-130.79l-6.99-29.37c-2.38.64-.71,2.71-.94,3.86-9.78,49.52-25.56,98.93-36.99,147.91l-4.16,14.55c-.4-1.34-1.33-2.82-1.63-4.15-10.81-48.34-21.15-99.62-34.17-147.25-.73-2.66-2.58-9.39-3.61-11.51-.48-.98-.78-1.48-1.98-1.25,0,1.26.13,2.54-.16,3.79-7.59,32.08-15.39,65.12-23.42,97.54-4.91,19.8-9.17,38.76-14.06,58.65-.21.86-1.11,4.51-2.3,4.18l-39.24-165.61-41.02,163.45-2.52-.72c-1.17-1.7-1.33-8.24-1.82-10.3-10.89-45.98-22.92-93.39-34.37-139.98-.18-.74-1.48-13.66-3.76-10.99l-39.94,165.6-39.24-165.6c-1.6-1.87-3.8,7.83-3.98,8.62-10.94,48.63-22.82,96.94-35.43,144.56-.46,1.72-.74,9.49-3.41,9.55-.67.02-3.45-11.37-3.79-12.79-4.66-19.41-8.16-39.1-12.75-58.53-6.09-25.77-14.16-52.1-19.18-78.02-.6-3.07-2.02-5.91-2.09-9.07l2.88-.72c-3.62.99-4.15-2.79-4.32-5.77Z"/>
  <path class="st1" d="M450.8,403.01c4.21,9.34,5.28,21.51,7.87,32.05,6.11,24.91,12.97,49.92,18.69,74.91.29,1.25,1.15,2.96,2.72,2.67,1.08-6.73,3.5-13.25,5.01-19.84,6.01-26.2,10.96-53.44,17.5-78.97,5.17-20.19,12.6-41.23,16.91-61.56.34-1.6-.51-4.58.88-5.23l40.3,166.31c2.68-5.24,3.05-11.15,4.52-16.72,12.71-48.02,24.4-96.56,35.4-144.58.25-1.09.85-4.9,2.55-4.28,0,10.13,3.94,20.24,6.28,30.08,9.22,38.79,18.58,77.69,28.1,116.61,1.4,5.73,1.52,11.8,3.96,16.89.48,1.01.68,1.54,1.96,1.3l38.86-166.31c2.77,5.94,3.03,12.58,4.52,18.88,10.44,43.93,21.31,86.7,32.02,130.69,1.22,5,2.04,9.04,3.24,14.05.12.5,1.77,3.88,2.69,2.69.3-7.93,3.69-15.85,5.58-23.58,7.54-30.82,14.26-62.4,21.95-92.53,3.47-13.62,6.49-30.45,10.79-43.21.34-1,1.43-1.47,1.86-2.47.46-1.07-.54-3.17.85-3.09-1.53,4.72,1.02,7.42,1.96,11.36,7.44,31.13,13.77,62.27,21.25,93.22,4.86,20.1,11.63,39.82,14.95,60.3h2.15c.23-.21-.63-1.67-.51-2.43,1.26-8.02,4.91-16.79,6.81-24.76,5.6-23.45,9.93-48.15,15.55-70.98,5.03-20.43,11.56-41.83,16.28-61.45.14-.59-.5-8.49,1.45-5.99.94,3.05.98,6.73,1.61,9.55,11.25,50,23.59,102.97,37.09,152.26.46,1.67-.77,4.36,1.59,3.79.33-.28,2.46-6.66,2.73-7.72,8.78-35.01,16.3-70.88,25.15-105.88l12.36-48.83,1.52-1c1.01,8.94,4.05,17.79,6.16,26.6,17.6,73.32,35.98,146.35,52.94,219.93,2.69,11.67,5.28,13.66,2.62,26.53-3.16,15.34-8.06,30.68-11.73,45.86-8.33,34.44-17.11,68.16-25.32,102.83-2.53,10.69-.95,10.55,1.11,20.18,8.64,40.48,20.38,81.04,30.21,121.63,2.11,8.7,8.32,29.37,7.19,37.11-.35,2.37-2.06,5.33-2.54,7.54-12.34,56.51-26.63,114.29-40.5,169.6-.15.59-1.27.47-1.4,1-.52,2.1.61,3.69.6,4.95,0,.54-3.08,6.96-3.75,9.79-4.36,18.45-8.35,37.02-12.92,55.48-1.09,4.39-3.83,7.69-2.67,12.81-1.12,1.39-2.6-2.93-2.7-3.41-3.15-14.06-5.98-28.23-9.55-42.16-9.49-37.01-18.37-76.29-27.98-113.97-.63-2.48.59-6.97-2.94-6.06l-38.87,167.76-41.37-166.32-39.95,166.33-39.96-166.33-2.34,1.98c-.92,7.37-3.3,14.43-5.03,21.61-9.64,39.95-19.58,79.73-28.46,119.85l-6.26,22.89-39.95-167.76c-2.66,2.94-1.91,6.54-2.69,9.56-12.09,46.71-23.05,93.73-34.33,140.62-.83,3.45-2.36,8.49-2.9,11.5-.34,1.91.14,4.12-.04,6.08l-41.39-166.33c-3.83.08-4.17,11.9-4.85,14.59-12.34,49.06-26.66,100.24-35.31,149.72-.16.9-.13,3.49-1.21,3.46.83-7.46-2.41-14.31-4.16-21.41-3.14-12.78-6.65-25.41-10.07-38.17-1.05-3.93-1.99-11.44-3.16-14.86-.34-.99-1.71-.9-1.97-1.53-.08-.2.79-3.02.6-4.23-1.08-6.94-3.51-15.4-5.06-22.35-4.17-18.73-9.81-37.06-13.07-56.05l-3.79-10.61-40.31,167.04c-2.55-3.48-1.93-9.09-3.29-13.14-2.33-6.98-4.38-15.52-6.27-23.39-2.98-12.43-5.21-25.29-8.26-37.82-1.7-7-5.87-16.66-6.98-23.25-3.03-17.93-8.06-37.64-12.35-56.04-.91-3.89-1.98-7.64-3.3-10.72-.49-1.15.38-3.13-1.3-2.68-.62.17-.28,3.11-.69,4.36-10.24,31.21-15.74,68.38-23.64,100.91-4.64,19.11-11.14,38.06-15.58,57.13-.4,1.71,1.07,5.23-1.48,4.63l-37.43-167.04h-2.15s-41.02,167.77-41.02,167.77l-40.67-167.76c-1.96,6.67-3.15,13.58-4.89,20.32-5.95,22.99-11.97,46.25-17.61,69.5-5.8,23.92-12.27,48.23-17.28,72-.36,1.72-.13,3.49-.18,5.23-2.68.53-.82-2.15-1.13-3.66-3.59-17.9-9.68-35.19-13.94-52.9-7.87-32.74-13.61-65.64-21.81-97.7-.7-2.75-2.1-7.24-3.1-9.89-.35-.92.04-1.74-1.4-1.45l-41.39,166.32c-.11-2.45.25-4.94-.17-7.39-1.31-7.69-4.92-17.04-6.86-24.82-7.66-30.68-14.38-61.77-21.93-92.54-8.64-35.22-18.27-71.39-26.97-106.94-2.19-8.95-7.3-24.66-8.18-32.85-.71-6.57,4.23-23.37,5.98-30.84,8.54-36.51,19.8-72.01,28.58-108.21,1.96-8.1,7.51-26.27,6.34-33.63-.47-2.93-2.3-7.3-3.1-10.57-10.63-43.55-22.55-86.42-32.53-130.18-1.18-5.17-3.65-12.63-4.33-17.27-1.26-8.65,3.56-27.04,5.76-36.37,1.95-8.25,7.68-23.1,8.31-30.58.32-3.81-.52-2.44.81-6.51,1.48-4.52,2.9-10.38,4.18-15.12,15.22-56.28,28.19-111.92,41.44-168.79.97-4.17,4.19-8.08,2.67-13.53l41.76,166.31c1.19,1.15.95.43,1.21-.69.46-1.98,1.05-3.21,1.48-4.88,9.8-37.7,16.54-74.59,25.54-111.96,3.99-16.54,9.54-32.55,12.06-49.5,3.13-.2,1.54,4.7,1.87,6.55,3.33,18.92,9.36,37.32,13.79,55.9,6.83,28.62,13.3,57.89,20.39,86.88,1.44,5.89,3.36,11.68,4.25,17.72,1.67.34,1.15-.21,1.62-.93.85-1.32,2.08-6.36,2.51-8.27,9.14-40.62,18.64-80.88,28.44-121.31,2.84-11.73,7.11-23.79,7.75-35.81,2.76-.38,1.91,4.14,2.33,5.94,10.63,44.98,21,89.94,32.38,134.65,2.16,8.47,4.28,17.69,7.4,25.72l40.66-165.59,39.59,165.59c.85.05,1.81-2.15,1.96-2.71,6.35-24.78,11.22-49.81,17.3-74.85,6.4-26.38,14.11-53.11,19.14-79.64.67-3.56,1.26-7.23,2.64-10.54l.88,6.67c3.84,15.19,8.34,30.39,12.03,45.56.4,1.65-.46,3.58.27,5.17ZM765.09,545.76c-2.16-.38-1.13.59-1.51,1.69s-.95,2.74-1.2,3.87c-4.68,21.08-9.99,41.95-14.64,63.21,4.17,15.86,7.98,31.81,12.14,47.67,1.08,4.11,1.97,11.32,3.61,15.11.28.65,1.91,2.66,2.32,2.35.03-1.27,1.01-2.23,1.28-3.41,3.61-15.98,6.9-32.09,10.29-48.03.84-3.96,3.73-10.58,3.59-14.42-.08-2.13-1.56-5.05-2.01-7.4-2.32-12.13-5.33-25.04-8.28-37.08-1.91-7.8-5.39-15.49-5.59-23.57ZM845.7,545.76c-1.87-.21-1.15,0-1.45,1.05-1.93,6.54-2.86,13.48-4.48,20.01-3.86,15.63-8.82,31.05-11.39,46.97,4.88,19.13,9.09,38.24,14.13,57.21.69,2.59.06,5.63,2.13,7.97,2.89.02,2.28-5.11,2.69-6.67,3.31-12.63,7.45-25.24,9.35-38.17l5.65-20.34c-5.97-21.61-10.69-43.19-16.57-64.83-.26-.95.03-2.18-.04-3.19ZM112.98,546.49h-2.14c.17,1.35.84,2.29.6,3.76-1.89,11.77-7.11,25.9-9.89,37.7-1.06,4.5-2.64,9.71-3.51,13.77-1.76,8.24-2.22,11.54-.38,19.49,3.46,14.94,7.35,29.68,10.93,44.5,1.03,4.24,1.68,9.58,2.24,13.97,3.58.38,1.45-.65,1.83-2.23,3.79-15.85,9.86-32.6,13.82-48.72s2.66-15.81-1.08-30.94c-3.08-12.46-5.85-24.81-8.98-37.1-1.21-4.73-2.98-9.31-3.45-14.2ZM357.71,546.48c-1.08-1.1-1.29.1-1.42,1.08-.83,6.37-2.41,13.46-3.89,19.29-3.91,15.46-8.79,30.78-12.64,46.28,3.24,13.96,6.25,28.11,10.59,41.88l.33,4.71,5.96,19.25c1.5.3.99-.6,1.27-1.57,4.32-14.56,8.34-30.96,11.82-45.81.91-3.89,3.9-15.36,3.88-18.51-.02-2.59-2.81-12.61-3.73-15.64-3.91-12.88-6.52-27.54-9.48-41.05-.73-3.34-2.04-6.55-2.7-9.9ZM520.38,546.48c-2.52-.58-1.11,2.9-1.5,4.62-3.65,16.38-7.97,33.51-12.37,49.55-.58,2.11-2.28,4.89-2.65,6.71-2,9.8,3.3,21.51,5.67,30.97,1.83,7.33,3.69,14.98,5.6,22.47.6,2.36,3.25,18,4.17,18.16,3.5.6,3.55-8.56,4.13-10.99,3.85-16.29,8.24-32.49,11.59-48.89,1.96-9.58-2.64-20.47-4.97-30.08-.43-1.8-.09-3.6-.49-5.28-1.11-4.75-3.26-7.87-3.95-12.5-1.17-7.93-2.71-13.77-5.07-21.69-.3-.99-.16-2.06-.17-3.06ZM603.15,546.48h-2.15c-1.18,7.31-3.7,14.32-5.57,21.44-.88,3.35-1.07,7.63-1.97,10.99-3,11.1-7.43,22.08-9.81,33.45,4.11,20.81,10.64,40.81,15.73,61.38.42,1.7-.57,5.21,1.97,5.24.18,0,1.91-2.38,2.07-2.96,5.57-20.79,8.58-42.42,14.72-63.05-5.68-16.06-7.81-32.94-11.56-49.38-1.28-5.6-4.23-11.03-3.42-17.1ZM195.05,547.2c-2-.2-1.14.06-1.4,1.1-5.53,22.18-10.5,44.54-15.92,66.95l15.53,63.73,1.86-.44c1.97-4.21,1.98-9.17,3-13.43,2.04-8.51,4.42-16.84,6.47-25.21,1.5-6.13,6.52-20.91,6.34-26.13-.05-1.62-1.27-2.37-1.44-3.6-.31-2.28-.16-6.5-.88-8.49-.41-1.12-1.77-1.02-1.95-1.27-.1-.14.81-1.91.65-3.09-1.04-7.74-4.46-15.53-6.33-23.27-1.26-5.21-1.96-11.82-3.21-16.95-.77-3.14-2.65-6.54-2.72-9.89ZM276.37,547.92c-1.51-.22-1.16-.08-1.6.91-1.16,2.61-2.46,8.12-3.25,11.15-.34,1.28-.03,2.7-.35,3.97-3.25,12.87-12.72,42.28-11.28,54.12,1.62,13.37,6.68,27.39,9.85,40.54,1.39,5.75,1.71,12.67,3.81,18.51.97,2.68,3,2.67,3.53.02,1.52-7.66,2.93-14.18,4.85-21.79s3.69-15.47,5.43-23.36c1.11-5.05,3.75-10.83,4.17-15.99.53-6.63-4.89-26.04-6.68-33.7-.54-2.3-1.81-5.17-2.63-7.45l-5.84-26.92ZM437.98,547.92c-1.01.2-3.81,16.26-5.24,18.53-1.08,14.99-8.35,29.89-10.21,44.51-1.03,8.11,4.86,23.94,6.94,32.58,1.65,6.82,3.29,13.33,5.06,20.14,1.37,5.27,1.38,11.3,4.15,16,1.4,0,5.44-13.5,5.95-15.63.58-2.42.27-5.5.96-8.4,2.91-12.13,7.43-26.18,9.11-38.41.94-6.84-2.63-17.83-4.32-24.86-3.12-12.99-7.27-25.69-10.46-38.49-.35-1.39.52-6.45-1.95-5.96ZM682.33,679.68c1.84,1.72,3.74-6.41,3.96-7.19,5.4-18.95,8.7-39.44,13.37-58.69-3.67-17.74-8.9-34.84-13.28-52.3-.59-2.36-1.37-13.53-4.41-13.59-.85.85-.1,2.64-.38,3.83-2.05,8.6-5.43,18.92-7.73,28.38-2.35,9.65-8.33,28.23-7.41,37.31.48,4.74,3.19,9.9,4.3,14.42,1.72,6.93,2.8,14.43,4.55,21.36,2.23,8.81,5.16,17.54,7.02,26.46ZM927.75,547.92c-4.12-.51-2.44,3.26-3.04,5.96-1.16,5.16-2.57,10.43-3.79,15.65-3.7,15.88-8.86,32.37-10.27,48.42,6.45,19.98,9.27,40.94,15.31,61.02,1.68-.04,2.57-4.12,3.02-5.62,4.72-15.54,8.76-33.88,12.39-48.94,1.85-7.68,1.62-9.06.22-16.53-2.3-12.26-5.17-24.87-8.25-37.1-1.92-7.62-4.56-15.04-5.59-22.86ZM153.3,712.08c-1.63-.28-1.41.15-1.78,1.41-5.03,17.08-8.35,35.04-12.43,52.4-1.54,6.56-3.43,10.64-2.29,17.79.66,4.15,3.13,9.58,4.1,13.9,2.89,12.89,6.06,25.38,9.36,38.16.38,1.47,1.07,10.74,3.4,10.26l10.62-41.94c2.19-8.47,5.78-19.6,4.9-28.3-.47-4.64-6.08-26.86-7.97-30.77-1.43-2.96-.25-1.59-.73-5.14-.41-3-4.24-10.22-4.2-10.82.05-.72.87-1.61.59-2.8-1.13-4.74-2.22-9.48-3.58-14.15ZM244.49,811.25c1.31-2.89,6-22.48,6.52-26.28,1.69-12.26-5.97-32.09-9.13-44.49-1.1-4.3-2-8.59-3.03-12.81-.9-3.64-1.63-10.14-2.77-13.07-2.69-6.89-3.44,5.59-3.65,6.43-3.91,15.56-8.65,31.44-11.97,47.06-.9,4.21-1.13,8.51-2.35,12.66,5.67,20.65,9.19,41.83,15.62,62.21.32,1,.23,2.02.2,3.04,1.5.26,2.08-.99,2.53-2.14,2.75-7.01,4.75-18.72,6.64-26.48.74-3.05,0-3.04,1.39-6.13ZM317.41,712.79l-2.11.04c-.61,4.41-2.24,8.51-3.47,12.74-3.85,13.29-6.61,27.97-9.7,42.14-.84,3.87-3.02,7.61-2.76,11.7,3.5,19.18,9.55,37.44,14.27,56.32.49,1.98.13,10.32,3.4,10.28,2.8-3.56,2.42-9.16,3.41-13.16,4.37-17.72,9.16-35.55,12.84-53.44-5.21-17.42-7.77-35.39-13.68-52.62l-2.21-14ZM398.73,846l13.51-55.97c3.8-14.29-2.44-28.78-5.8-42.81-1.84-7.69-4.26-15.61-6.1-23.42-.48-2.04-.1-10.94-3.4-11-1.8,7.16-4.21,14.24-5.95,21.42-2.66,11-5.38,22.15-7.91,33.12-3.23,13.99-1.14,14.52,1.9,27.26,3.67,15.36,6.19,31.24,10.34,46.54.19.71,2.15,6.03,3.4,4.86ZM480.79,712.8c-.94-1.09-3.31,3.7-3.43,4.13-4.59,17.53-9.86,35.44-13.65,53.3-2.06,9.72-1.28,11.78.72,21.22,2.71,12.76,6.58,24.66,9.71,37.09,1.23,4.89,1.18,10.12,3.62,15.1.39.8.88,1.8,1.95,1.65,1.4-4.64,2.65-9.49,3.8-14.22,3.02-12.47,6.08-25.27,8.98-37.81.89-3.85,3.67-10.23,3.5-13.88-.18-3.87-2.55-13.15-3.74-17.06-3.85-12.6-7.66-28.4-10.69-42-.27-1.24-.31-6.98-.77-7.52ZM641.3,846c4.6.28,2.63-3.26,3.03-5.23,1.19-5.86,4.02-12.32,5.43-18.34,3.29-14.02,5.36-28.55,9.58-42.32-5.4-17.92-8.16-36.41-12.61-54.39-1.06-4.28-2.04-9.22-4.36-12.92-1.42,4.94-3.19,9.96-4.5,14.93-3.23,12.29-5.5,25.43-8.38,37.63-1.11,4.72-3.23,9.24-4.1,14.04l15.92,66.6ZM804.69,712.8c.39,2.09-1.54,3.39-1.99,4.85-3.77,12.11-5.44,25.5-8.26,37.82-2.43,10.63-7.64,20.64-5.42,31.68,3.37,16.78,9.37,34.58,13.47,51.32.51,2.09-.84,4.54,1.84,6.07,3.47-2,1.96-4.59,2.68-7.38,4.44-17.2,8.93-34.46,13.34-51.46,1.53-5.91-.05-13.22-1.44-19.1-1.71-7.26-5.65-14.76-5.76-22.32l-8.46-31.48ZM886.72,845.99c.28-.25,2.69-5.59,2.77-6.31.8-7.3,2.29-13.74,4.04-21.09,3.24-13.6,6.99-26.98,9.62-40.65-6.28-19.79-8.57-43.1-15.17-62.44-.39-1.14-.79-2.72-2.32-2.72l-16.97,67.33c5.66,21.63,11.24,43.13,16.64,64.78.21.82.05,2.27,1.39,1.09ZM564.53,726.31l-1.8-11.6c-.26-.71-.85-1.38-1.67-1.19-.55.13-3.47,9.15-3.8,10.6-3.23,14.03-6.55,28.12-9.72,42.12-2.24,9.9-4.15,14.12-1.8,24.51,2.48,10.91,5.21,22.42,7.91,33.12.69,2.73,5.69,20.87,6.68,21.4,1.18.63,1.15-.88,1.4-1.43,3.75-8.56,6.05-25.76,8.47-35.47,2.31-9.23,8.13-22.51,6.99-31.81-.18-1.48-2.5-12.97-2.84-13.58-2.67-4.82-8.06-29.41-9.83-36.66ZM725.5,713.52c-2.22-2.07-3.43,9.5-3.66,10.37-3.64,13.74-7.99,27.43-11.37,41.19-4.06,16.51-2.58,17.69,1.15,33.25,2.49,10.38,4.7,20.79,7.96,30.91-.48,1.99,3.24,16.47,4.13,16.76l1.79-.49,15.15-62.5c.22-11.02-4.35-22.05-6.89-32.77-.67-2.84-.6-6.2-1.24-8.84-2.25-9.3-5.94-18.3-7.02-27.9ZM520.38,878.4c-2.36-.56-1.18,2.57-1.75,4.37-3.07,9.62-4.11,17.91-6.33,27.51-2.11,9.1-8.53,27.18-8.46,35.44.02,2.87,1.6,5.46,2.11,7.97,2.57,12.82,6.04,25.48,9.33,38.18.63,2.43,3.13,16.96,4.75,17.58,2.22.86,2.66-2.77,2.93-4.29,3.49-19.68,9.83-39.16,14.03-58.74l-16.6-68.02ZM602.43,878.4l-1.61.91c-6.48,21.78-11.78,43.55-16.44,65.69,4.64,20.39,9.81,40.03,15,59.93.42,1.62-.23,6.62,2.68,6.68,1.51-6.01,2.76-12.12,4.17-18.16,1.03-4.41,1.72-8.7,2.75-13.09,2.66-11.3,9.2-29.16,7.8-40.36-.5-4.01-3.45-9.5-4.15-13.19-2.78-14.69-6.31-29.37-9.88-44.05-.35-1.45-.4-2.88-.33-4.36ZM204.18,973.97c.61-1.36,4.95-20.94,5.21-23.27,1.34-11.94-5.52-30.59-8.39-42.62-2.11-8.86-3.04-18.44-5.99-27.13-2.43-7.17-3.54,5.43-3.73,6.27-3.75,16.51-8.35,32.84-12.1,49.1-1.78,7.71-3.47,6.81-1.18,15.64,4.36,16.79,9.15,33.58,12.8,50.56.65,3.03,1.51,6.03,2.1,9.07,1.15.22,1.56-.24,1.99-1.24.92-2.16,1.66-8.37,2.4-11.28,1.83-7.26,4.2-19.13,6.9-25.1ZM274.23,1013.04c4.49-1.13,3.51-8.58,4.36-11.83,3.47-13.31,7.43-26.67,10.54-39.86,4.13-17.55,2.6-17.74-1.16-34.42-2.21-9.81-4.62-19.59-6.71-29.29l-5.23-18.51c-.46.01-2.42,5.57-2.74,6.6-2.1,6.81-3.28,14.09-4.99,20.93-4.37,17.51-10.5,33-6.84,51.11,3.34,16.52,9.7,33.26,12.73,49.9.31,1.68-.1,3.63.04,5.36ZM683.75,879.12c-2.25-.59-1.29,2.57-1.76,4.35-4.71,17.98-10.39,36.23-14.11,54.29-2.75,13.39-.23,13.52,2.75,25.41,3.74,14.95,6.67,30.43,10.93,45.23.27.95-.04,2.19.04,3.2,3.99.52,2.4-2.79,3.04-5.23,3.62-13.85,6.55-27.8,10.1-41.73,2.87-11.26,6.37-15.73,3.33-28.2-3.31-13.6-7.18-26.98-10.53-40.59-1.33-5.4-1.27-11.43-3.81-16.72ZM765.81,879.12c-3.84.41-2.42,5.01-3.04,7.39-3.55,13.53-8.07,27.51-11.27,41.28-.88,3.8-3.71,14.84-3.73,17.92-.02,3.89,2.56,9.93,3.49,13.85,2.83,11.94,5.25,24.34,8.26,36.37.51,2.05,3.77,14.67,4.5,14.95.31.12,1.95.29,1.79-.5,3.94-22.04,10.9-43.42,15.16-65.41-3.93-17.67-8.62-35.18-12.79-52.74-1-4.2-1.66-8.84-2.36-13.12ZM846.42,879.13c-1.18-1.26-1.22.39-1.51,1.01-.9,1.99-1.9,6.03-2.48,8.31-4.7,18.51-8.01,37.65-14.07,55.83,3.33,19.29,9.88,38.42,14.28,57.78.67,2.94.14,6.49,1.99,9.55,2.77-.03,2.28-5.82,2.69-7.39,5.19-19.94,10.47-39.84,15.02-59.96-5.94-20.98-9.55-42.34-16.19-62.98-.27-.84.46-1.96.27-2.16ZM925.61,1010.16c1.12.04,1.73.28,2.49-.74,1.15-1.53,2.31-11.37,2.7-13.86,3.74-18.96,14.47-41.34,10.45-60.47-1.4-6.65-3.86-13.37-5.37-19.83-2.81-12.04-5.55-24.07-8.14-36.14-1.1-.84-3.13,6.85-3.38,7.77-4.36,15.71-7.35,32-11.33,47.71-.84,3.33-3.08,6.31-3.31,9.65-.28,3.99,3.37,15.98,4.53,20.74,1.97,8.09,4.74,16.14,6.81,24.15,1.79,6.93,3.17,14,4.55,21.02ZM113.67,879.87l-2.11-.04c.76,2.46-.77,3.92-1.23,5.62-4.49,16.53-8.12,33.86-13.11,49.66-3.67,11.63,4.34,37.18,7.46,49.89,2.12,8.62,5.23,16.98,6.16,25.89,1.66.34,1.15-.19,1.62-.92.97-1.53,1.89-5.53,2.49-7.57,1.91-6.52,2.85-13.34,4.58-19.9,2.59-9.85,10.53-32.02,9.26-41.06-.32-2.29-2.27-5.78-2.76-8.04-1.85-8.5-3.28-17.24-5.28-25.67-2.2-9.29-4.88-18.56-7.08-27.85ZM362.99,903.4c-1.79-7.33-2.67-15.02-4.71-22.32l-1.99-1.24-15.86,64.47c4.27,21.92,10.25,43.34,16.4,64.94.28,1,.18,2.05.18,3.06,1.18-.13,1.07-1.11,1.35-1.88,2.37-6.59,8.65-30.36,9.32-36.83.35-3.43-.35-1.89.78-5.05,2.58-7.2,3.08-15.63,5.78-22.9-2.72-7.65-3.96-15.74-5.89-23.53-1.55-6.23-4.03-13.34-5.35-18.73ZM439.76,879.84c-3.96-.51-2.43,2.78-3.05,5.23-4.89,19.47-9.87,39.17-14.85,58.45,2.94,19.03,8.79,37.64,13.55,56.23.33,1.28-.26,2.95.07,4.25.43,1.71,2.13,7.56,3.92,7.6.74-1.23.17-2.99.54-4.52,3.26-13.43,7.95-26.55,11.14-39.98,2.91-12.26,4.75-18.59,2.17-31.27-3.16-15.55-8.15-31.08-11.87-46.44-.3-1.25-1.06-9.04-1.61-9.56Z"/>
  <path class="st1" d="M356.99,16.56l39.59,165.59c4.61.3,2.65-3.32,3.03-5.23,3.41-16.82,9.34-35.25,13.47-52.05,7.14-29.06,14.14-58.71,21.46-87.97,1.41-5.64,1.69-12.16,4.86-17.47.62.02.26,3.42.53,4.52,4.89,20.1,10.2,39.57,15.15,59.72,6.89,28,14.34,56.3,20.09,84.24l5.25,14.98c.83-.02,2.39-10.2,2.73-11.68,8.94-38.74,19.61-77.33,28.4-116.31,1.58-7,2.43-13.25,4.1-20.37,1.4-5.95,3.81-11.63,3.29-17.96l40.67,164.88c1.83-.04,3.22-5.64,3.6-7.2.74-3.04.64-6.14,1.24-8.84,6.92-31.15,16.65-62.41,23.24-94.11,3.37-16.22,7.36-33.97,11.46-50.45.28-1.14.83-4.89,2.55-4.28.04,7.91,2.99,15.85,4.88,23.56,10.4,42.46,20.78,85.47,31.28,127.83.45,1.8,3.8,14,4.52,14.21,1.21.22,2.19-3.44,2.34-4.13,2.19-9.8,4.1-19.12,6.48-28.8,6.76-27.4,13-57.47,19.92-85.91,3.24-13.34,7.75-27.43,10.31-40.81.38-1.97.11-3.97.18-5.95l42.1,165.61,1.81-.43c-.19-3.3.26-6.61.91-9.82,2.97-14.67,7.37-30.61,10.92-45.24,8.54-35.17,18.01-70.42,26.86-105.61.31-1.25.18-2.53.17-3.79l39,161.83,2.02.17,39.95-162c.83.72,1.38,1.61,1.64,2.68,3.51,14.28,7.15,28.62,10.49,42.78,6.19,26.25,12.72,52.64,19.14,78.77,2.68,10.91,6.96,24.26,7.96,35.96.08.9-.61,3.09,1.06,2.53l41.02-162.72c1.15,1.41,1.78,3.96,2.2,5.72,18.39,78.02,39.83,155.5,58.08,232.78,2.55,10.79,6.37,19.83,4.83,31.1-.93,6.75-3.99,13.46-5.55,19.65-5.35,21.15-9.89,42.04-15.33,63.15-.46,1.77-2.09,9.11-2.52,9.72-.53.75-.81.93-1.75.76l-38.16-160.79c.15-.79-1.48-.61-1.79-.49-.73.3-3.44,11.08-3.79,12.77-.39,1.88.14,3.82-.18,5.45-.06.32-2.19,1.39-2.67,3.21-3.74,14.12-6.42,28.8-9.71,42.85-3.87,16.51-7.84,33.12-11.88,50.03-3.46,14.5-6.42,33.36-12.36,46.68-.38.86.34,1.3-1.51,1.01,1.25-4.2-1.21-7-1.86-10.02-4.36-20.37-9.16-45.51-15.46-65.18-.63-1.98-1.33-3.61-2.81-5.12l1.35-2.02c-1.09-1.92-2.1-3.86-2.65-6.03-3.14-12.38-5.05-26.07-8.13-38.67-.64-2.61-3.12-6.14-3.43-6.99-.07-.2.73-2.12.47-3.67-1.25-7.56-4.73-16.04-6.33-22.64-.34-1.39,1-4.7-1.09-4.55-2,6.41-3.24,13.08-4.9,19.59-7.16,28.11-12.74,56.78-19.4,84.99-.87,3.69-2.16,3.39-2.66,4.18-.54.87,1.36,2.01,1.28,3.07-.1,1.2-2.13,4.37-2.58,6.07-3.29,12.48-5.14,25.67-8.26,37.81-.31,1.2-1.93,2.58-2.37,4.1-.58,1.99.61,5.61-1.77,5.07l-4.88-17.09c-3.94-24.01-10.18-47.62-16.21-71.62-2.73-10.86-3.66-20.85-6.24-31.92-1.92-8.23-3.41-16.64-5.39-24.84-1.92-7.92-5.17-15.57-5.8-23.73l-41.03,164.89c-2.03-.04-3.94-9.16-4.49-11.35-10.92-42.89-19.62-85.67-30.45-129.26-.55-2.23-2.61-6.58-3.38-9.69-.21-.83-1.85-16.27-4.48-13.15l-39.23,167.04c-.57,0-.3-2.74-.55-3.77-6.13-24.82-12.42-50.32-19.06-75.25-.38-1.43-.06-3.06-.48-4.59-.4-1.44-1.87-1.32-1.87-1.77.15-13.1-6.61-32.2-9.86-45.52-2.91-11.98-5.6-24.16-8.13-36.15-1.57-1.88-3.95,7.71-4.14,8.45-12.26,49.07-23.87,98.75-34.17,147.97-.38,1.8-1.22,6.72-3.07,7.02s-.74-5.17-2.33-6.31c-11.59-43.89-21.19-88.1-32.03-132.12-2.11-8.57-4.66-17.06-6.31-25.73l-6.3,22.12c-5.11,18.89-8.82,38.62-13.45,57.82-4.65,19.25-9.65,38.06-14.75,57.25-2.39,9.02-3.43,18.53-7.59,26.97l-38.51-162.73-2.2.32-40.62,163.85-38.51-166.32c-1.85-.15-1.21-.13-1.41,1.08-1.3,7.68-3.8,14.94-5.74,22.36-7.24,27.68-13.22,56.02-19.64,83.31-4.08,17.33-10.26,36.86-12.26,54.08-.15,1.28-1.61,2.1-1.78,3.07-.14.81,1.03,2.09.16,2.42-3.53-1.94-3.21-7.59-4-10.99-10.73-46.06-24.77-93.82-33.96-141.12l-3.77-12.05c-2.32,1.27-1.43,3.37-2,5.21-14.07,46.13-21.46,94.27-34.91,140.76.07,2.15-3.91,18.21-4.85,18.19l-39.23-165.61-41.39,164.17c-2.68-.05-2.84-8.71-3.27-10.41-12.34-48.53-23.53-97.43-34.85-145.84-.3-1.3-1.68-5.22-2.35-6.28-.46-.75.03-1.26-1.61-.92l-40.31,165.6c.79-2.84-.79-4.82-1.28-7.01-5.64-25.13-11.7-50.16-17.62-75.25-2.18-9.24-5.54-12.5-3.23-23.02,3.02-13.76,6.84-27.92,10.28-41.56,14.1-55.82,27.89-111.89,41.51-167.99,3.69-15.21,9.62-30.21,10.64-45.88l1.93,4.17c8.35,33.42,16.43,66.58,24.47,100.08,4.17,17.38,7.29,39.89,13.51,56.32.45,1.18,1.26,2.04,2.18,2.86L193.98,17.28l39.95,164.16c.9-.22,1.65-1.15,1.97-1.98,1.8-4.66,2.04-10.7,3.24-15.48,7.48-29.74,15.38-59.5,22.47-88.4,4.18-17.04,9.28-34.29,12.59-51.49.2-1.05-.33-5.39.4-5.37,1.45-.09,1.61,1.32,2.01,2.31,2.56,6.24,3.95,17.19,5.77,24.47,5.48,21.99,10.43,44,15.83,66.25,4.38,18.06,9.35,35.49,13.96,53.72,1.14,4.49,1.15,9.31,2.87,13.69.39,1,.59,2.39,2.01,2.31l39.95-164.88Z"/>
  <path class="st1" d="M235.35,1180.08c.17,2.98.7,6.76,4.32,5.77l-2.88.72c.07,3.17,1.49,6,2.09,9.07,5.02,25.91,13.09,52.25,19.18,78.02,4.59,19.43,8.08,39.12,12.75,58.53.34,1.41,3.12,12.8,3.79,12.79,2.66-.06,2.95-7.83,3.41-9.55,12.61-47.62,24.49-95.92,35.43-144.56.18-.79,2.38-10.48,3.98-8.62l39.24,165.6,39.94-165.6c2.28-2.66,3.58,10.25,3.76,10.99,11.45,46.59,23.47,94,34.37,139.98.49,2.06.64,8.6,1.82,10.3l2.52.72,41.02-163.45,39.24,165.61c1.19.33,2.09-3.32,2.3-4.18,4.89-19.89,9.15-38.85,14.06-58.65,8.03-32.42,15.83-65.45,23.42-97.54.3-1.25.17-2.53.16-3.79,1.21-.23,1.51.26,1.98,1.25,1.02,2.12,2.88,8.86,3.61,11.51,13.02,47.63,23.36,98.91,34.17,147.25.3,1.32,1.23,2.8,1.63,4.15l4.16-14.55c11.43-48.98,27.21-98.38,36.99-147.91.23-1.15-1.44-3.22.94-3.86l6.99,29.37c10.18,43.14,21.48,87.07,30.48,130.79.42,2.04,2,3.74,1.41,6.16,1.09,1.5,2.31-3.07,2.49-3.62,4.48-13.11,7.74-29.28,11.13-42.87,8.88-35.63,16.75-71.66,25.88-107.31.75-2.94,1.48-6.61,1.52-9.65h2.15s39.94,163.45,39.94,163.45l40.67-165.6,39.95,166.3,39.95-164.87c1.44-.18,1.19-.15,1.62.9.51,1.23,1.45,4.65,1.81,6.11,12.01,48.81,22.75,97.45,35.24,146.19.57,2.22.43,10.2,3.43,10.25l19.76-78.9-1.39-1.02c3.08-.32,1.69-5.47,2.19-7.53,2.68-11.1,6.92-22.78,9.87-34.05,3.36-12.88,5.72-27.14,9.75-39.94.24-.76.18-2.18,1.21-2.01,0,1.26-.13,2.54.17,3.79,6.97,28.18,13.98,54.71,20.04,82.91.24,1.11,1.11,1.9,1.31,3.01,1.96,10.77-2.42,17.3-4.8,27.45-7.75,33.06-15.75,66.15-23.84,99.27-2.02,8.25-3.2,16.5-5.29,24.95-7.72,31.33-15.87,62.5-23.75,93.6-1.8,7.08-3.39,14.23-4.91,21.37l-2.83.05c-.16-3.47-.82-7.61-1.64-10.97-8.72-35.61-17.07-71.56-25.77-107.28-.13-.55-1.25-.56-1.36-1.06-2.84-13.01-4.6-27.74-9.04-40.55-.34-.98.12-2.53-1.41-2.15l-39.96,164.88-41.37-162.72-39.59,162.72-41.74-163.44-41.03,162.72c-2.04-1.41-.34-3.35-.67-5.07-.74-3.83-2.85-8.72-3.83-12.74-10.7-44.08-20.76-87.54-30.58-131.41l-5.22-14.93-38.52,165.6-5.72-15.51c-10.86-45.69-21.17-92.34-33.69-137.66-.93-3.36-.54-7.89-3.41-10.97-.6,0-3.45,10.02-3.79,11.32-12.69,48.53-23.59,98.05-35.25,146.9-.47,1.97.68,5.31-2.34,5.21-.03-1.52.14-3.07-.1-4.59-.97-6.13-3.33-12.91-4.73-19.02-10.09-43.93-20.87-87.95-32.05-131.37-.87-3.4-3.07-6.9-2.71-10.61l-40.66,162.72-2.4-1.2-3.9-19.86c-12.01-46.63-21.69-93.38-34.52-139.71l-2-1.23c.97,8.26-3.16,15.82-4.88,23.56-9.73,43.82-21.22,87.94-31.28,130.71l-3.43,9.88c.2-5.33-2.81-10.68-4.1-15.7-4.33-16.82-7.79-33.69-12.23-50.4-1.85-6.97-3.34-13.94-5.09-21.55-4.13-17.95-8.27-36.59-12.73-54.94-1.8-7.39-5.25-14.46-4.71-22.29h-2.15c-.59,5.03-2.96,9.92-4.15,14.94-8.99,37.99-16.75,76.19-25.55,114.12-2.69,11.58-6.45,22.97-8.39,34.68l-2.22.43-41.38-164.89-38.52,166.32c-1.19-.26-1.61-1.82-1.83-2.84-10.89-49.1-23.87-97.94-36.14-146.74-1-3.96-.91-7.91-2.37-12.01-.34-.96-.31-1.96-1.74-1.85-2.11.49-3.44,12.96-4.05,15.4-7.96,31.81-16.08,63.8-23.5,96.01-3.54,15.35-6.2,35.32-11.32,49.88-.3.86-.8,1.97-1.8,2.15.19-6.15-2.66-11.95-4.15-17.81-11.02-43.17-21.74-86.81-32.36-130.35-8.15-33.41-15.78-66.77-23.4-100.43-1.96-8.67-5.67-12.63-3.35-22.41,5.78-24.45,12.08-48.56,17.52-73.2.61-2.75,2.06-5.81,2.43-8.45.42-3.07-.18-1.61.8-4.3.39-1.07,0-3.57,1.49-3.77,0,1.26-.15,2.54.18,3.79,13.82,52.49,27.5,105.3,39.96,158.02.42,1.77-.79,5.1,1.6,4.51,1.11-4.65,2.99-9.68,4.14-14.23,4.53-17.94,7.6-36.5,11.88-54.36,5.3-22.14,11.6-44.49,16.59-66.92.48-2.15.53-5.24.63-5.51.03-.09,1.15-.03,1.55-.97,1.48-3.48,1.63-10.66,2.85-15.12.64-2.31,1.28-5.54,3.04-7.04,2,2.78,1.24,6.52,1.99,9.52,7.68,30.45,14.97,60.72,22.45,91.3,4.95,20.24,10.44,40.31,15.51,60.45l2.19-1.04,37.39-163.12h2.15Z"/>
  <path class="st1" d="M1008.36,545.76l-4.72-14.35c-4.44-23.93-11.38-47.62-17.42-71.13-3.51-13.67.32-26.54,3.26-39.6,4.38-19.47,9.23-38.58,14.01-57.99,1.45-5.9,4.59-11.52,4.51-17.81.66,6.09,3,11.87,4.5,17.82,6.12,24.3,12.86,48.95,17.49,73.23,3.56,18.67-3.64,39.52-8.34,57.97-3.81,14.98-7.3,29.6-11.68,44.47-.6,2.04-.39,5.07-1.62,7.39Z"/>
  <path class="st1" d="M31.67,680.4c-.97,5.1,1.71,9.43,2.8,14.12,5.84,25.05,11.78,50.37,17.53,75.35.48,2.1,2.36,5.6,2.66,7.41,1.29,7.64-9.67,42.7-12.15,52.56-3.46,13.74-5.73,30.45-11.23,43.49-.38.89-.04,2.91-.69,2.92-1.89-2.68-1.31-5.99-1.97-8.84-4.74-20.62-10.48-41-15.5-61.54-.99-4.04-7.01-28.35-6.54-30.07.11-.4,1.25-.27,1.71-1.76,2.53-8.04,3.49-18.41,5.55-26.87,5.07-20.77,11.61-41.26,16.34-62.14.39-1.71-1.07-5.23,1.48-4.64Z"/>
  <path class="st1" d="M1008.37,680.4c.01,1-.13,2.08.17,3.07,5.33,17.79,9.2,38.2,13.76,56.92,2.67,10.99,7.97,24.82,9.66,35.58.71,4.52-.53,8.94-1.46,13.32-4.69,22.03-12.32,43.4-16.55,65.53l-6.64,22.15c-.43-5.35-2.51-10.48-3.79-15.66-4.86-19.55-8.58-39.62-13.29-59.42-1.71-7.19-6.59-19.12-5.65-26.14.17-1.29,1.26-.91,1.45-1.57,6.43-22.97,10.86-46.4,16.08-69.46,1.44-6.35,4.39-13.48,5.44-19.82.32-1.95-1.96-4.99.83-4.5Z"/>
  <path class="st1" d="M1025.49,1143.19c-7.79,16.97-10.52,44.24-16.41,63.19-.34,1.08.84,2.17-1.42,1.78-.02-1.5.18-3.02-.17-4.51-2.65-11.18-6.25-22.31-9.01-33.46-3.03-12.26-5.21-24.57-8.26-37.1-1.46-5.99-6.22-16.88-5.53-22.43.46-3.63,2.52-8.15,3.37-11.74,6.28-26.8,13.33-53.09,19.56-79.79.28-1.2-.05-2.66.05-3.91l6.43,22.72c4.74,24.51,11.66,48.46,18.01,72.73-1.12,10.35-4.59,20.2-6.96,30.3-.15.66.66,1.57.35,2.24Z"/>
  <path class="st1" d="M31.67,1015.2c-.79,2.82.78,4.83,1.25,7.03,4.82,22.64,10.04,46.15,15.47,69.48,1.13,4.86,5.75,15.92,5.55,20.28-.1,2.18-2.1,6.37-2.65,8.87-5.46,24.53-11.81,48.63-17.82,72.9-1.11,4.49-1.58,9.23-2.88,13.69-2.83-8.6-5.23-17.61-7.37-26.48-5.22-21.63-9.43-45.14-15.89-66.16-.32-1.05-1.52-1.01-1.5-1.3.36-4.78,3.86-15.97,5.19-21.42.87-3.57,1.94-7.27,2.83-10.85,5.2-20.82,12.74-43.78,16.4-64.97.21-1.21-.44-1.23,1.42-1.08Z"/>
  <path class="st1" d="M32.38,349.92c.04,6.93,2.69,12.83,4.14,19.26,3.11,13.79,5.71,27.78,8.99,41.41,1.96,8.17,9.71,30.16,9.26,36.92-.18,2.61-2.13,6.14-2.76,8.8-5.41,22.84-11.32,45.34-16.82,68.14-1.11,4.59-3.51,10.76-4.12,15.38-.13.96.35,1.51.59,2.33l-1.8.02c-1.42-.41-.93-6.54-1.25-8.13-.88-4.41-2.91-8.99-3.94-13.34-5.79-24.32-10.77-48.98-16.82-73.23,2.15-10.28,4.29-20.56,6.72-30.77,5.22-21.94,12.55-43.33,16.39-65.7.16-.92.27-2.31,1.41-1.09Z"/>
  <path class="st0" d="M317.41,712.79l2.21,14c5.91,17.22,8.47,35.19,13.68,52.62-3.68,17.89-8.48,35.72-12.84,53.44-.99,4-.62,9.6-3.41,13.16-3.27.04-2.91-8.3-3.4-10.28-4.72-18.88-10.77-37.14-14.27-56.32-.26-4.09,1.92-7.83,2.76-11.7,3.09-14.17,5.84-28.85,9.7-42.14,1.23-4.23,2.86-8.33,3.47-12.74l2.11-.04Z"/>
  <path class="st0" d="M480.79,712.8c.46.54.49,6.28.77,7.52,3.03,13.61,6.84,29.41,10.69,42,1.2,3.91,3.56,13.19,3.74,17.06.17,3.65-2.61,10.03-3.5,13.88-2.91,12.54-5.96,25.34-8.98,37.81-1.14,4.72-2.4,9.57-3.8,14.22-1.07.15-1.55-.85-1.95-1.65-2.44-4.99-2.39-10.21-3.62-15.1-3.13-12.43-7-24.33-9.71-37.09-2-9.44-2.78-11.5-.72-21.22,3.79-17.87,9.06-35.77,13.65-53.3.11-.44,2.49-5.23,3.43-4.13Z"/>
  <path class="st0" d="M153.3,712.08c1.36,4.67,2.44,9.41,3.58,14.15.29,1.19-.54,2.08-.59,2.8-.04.59,3.79,7.81,4.2,10.82.48,3.55-.7,2.18.73,5.14,1.89,3.91,7.5,26.13,7.97,30.77.88,8.7-2.71,19.82-4.9,28.3l-10.62,41.94c-2.33.47-3.02-8.79-3.4-10.26-3.3-12.77-6.47-25.26-9.36-38.16-.97-4.32-3.44-9.75-4.1-13.9-1.14-7.15.75-11.23,2.29-17.79,4.08-17.35,7.4-35.32,12.43-52.4.37-1.27.15-1.69,1.78-1.41Z"/>
  <path class="st0" d="M886.72,845.99c-1.34,1.18-1.19-.27-1.39-1.09-5.4-21.65-10.98-43.16-16.64-64.78l16.97-67.33c1.52,0,1.93,1.58,2.32,2.72,6.6,19.34,8.88,42.65,15.17,62.44-2.62,13.67-6.38,27.05-9.62,40.65-1.75,7.35-3.24,13.79-4.04,21.09-.08.72-2.49,6.06-2.77,6.31Z"/>
  <path class="st0" d="M725.5,713.52c1.08,9.59,4.77,18.6,7.02,27.9.64,2.64.56,6,1.24,8.84,2.54,10.72,7.1,21.75,6.89,32.77l-15.15,62.5-1.79.49c-.88-.29-4.6-14.77-4.13-16.76-3.26-10.13-5.47-20.53-7.96-30.91-3.73-15.57-5.21-16.74-1.15-33.25,3.38-13.76,7.73-27.45,11.37-41.19.23-.87,1.44-12.44,3.66-10.37Z"/>
  <path class="st0" d="M244.49,811.25c-1.4,3.09-.65,3.08-1.39,6.13-1.89,7.76-3.89,19.47-6.64,26.48-.45,1.15-1.03,2.4-2.53,2.14.03-1.02.12-2.04-.2-3.04-6.43-20.38-9.95-41.56-15.62-62.21,1.22-4.15,1.46-8.45,2.35-12.66,3.33-15.63,8.07-31.5,11.97-47.06.21-.84.95-13.32,3.65-6.43,1.14,2.93,1.87,9.42,2.77,13.07,1.04,4.21,1.94,8.5,3.03,12.81,3.16,12.4,10.82,32.23,9.13,44.49-.52,3.8-5.21,23.38-6.52,26.28Z"/>
  <path class="st0" d="M564.53,726.31c1.78,7.25,7.16,31.84,9.83,36.66.34.61,2.66,12.1,2.84,13.58,1.14,9.3-4.69,22.58-6.99,31.81-2.43,9.71-4.72,26.92-8.47,35.47-.24.56-.21,2.07-1.4,1.43-.99-.53-6-18.66-6.68-21.4-2.7-10.71-5.44-22.22-7.91-33.12s-.45-14.61,1.8-24.51c3.17-14,6.49-28.08,9.72-42.12.33-1.45,3.25-10.48,3.8-10.6.82-.19,1.41.48,1.67,1.19l1.8,11.6Z"/>
  <path class="st0" d="M682.33,679.68c-1.86-8.92-4.8-17.65-7.02-26.46-1.75-6.93-2.84-14.43-4.55-21.36-1.12-4.51-3.82-9.68-4.3-14.42-.92-9.07,5.05-27.66,7.41-37.31,2.31-9.46,5.68-19.78,7.73-28.38.29-1.2-.47-2.98.38-3.83,3.04.06,3.82,11.23,4.41,13.59,4.38,17.46,9.61,34.56,13.28,52.3-4.67,19.25-7.97,39.73-13.37,58.69-.22.78-2.12,8.92-3.96,7.19Z"/>
  <path class="st0" d="M641.3,846l-15.92-66.6c.87-4.8,2.99-9.32,4.1-14.04,2.88-12.2,5.15-25.34,8.38-37.63,1.31-4.97,3.08-9.99,4.5-14.93,2.32,3.7,3.3,8.64,4.36,12.92,4.45,17.97,7.21,36.47,12.61,54.39-4.22,13.77-6.3,28.3-9.58,42.32-1.41,6.01-4.24,12.48-5.43,18.34-.4,1.97,1.57,5.52-3.03,5.23Z"/>
  <path class="st0" d="M274.23,1013.04c-.15-1.73.26-3.68-.04-5.36-3.03-16.64-9.4-33.38-12.73-49.9-3.66-18.11,2.47-33.6,6.84-51.11,1.71-6.84,2.89-14.11,4.99-20.93.32-1.03,2.28-6.59,2.74-6.6l5.23,18.51c2.09,9.69,4.5,19.48,6.71,29.29,3.76,16.67,5.29,16.87,1.16,34.42-3.11,13.18-7.07,26.55-10.54,39.86-.85,3.25.14,10.7-4.36,11.83Z"/>
  <path class="st0" d="M439.76,879.84c.55.52,1.31,8.31,1.61,9.56,3.73,15.36,8.71,30.9,11.87,46.44,2.58,12.69.74,19.01-2.17,31.27-3.18,13.43-7.88,26.55-11.14,39.98-.37,1.52.2,3.29-.54,4.52-1.79-.04-3.49-5.9-3.92-7.6-.32-1.3.26-2.97-.07-4.25-4.76-18.6-10.61-37.2-13.55-56.23,4.98-19.28,9.96-38.98,14.85-58.45.62-2.45-.92-5.74,3.05-5.23Z"/>
  <path class="st0" d="M603.15,546.48c-.8,6.07,2.15,11.5,3.42,17.1,3.75,16.44,5.88,33.32,11.56,49.38-6.14,20.63-9.15,42.26-14.72,63.05-.16.58-1.89,2.97-2.07,2.96-2.53-.04-1.54-3.54-1.97-5.24-5.09-20.57-11.62-40.57-15.73-61.38,2.38-11.37,6.81-22.35,9.81-33.45.91-3.35,1.09-7.63,1.97-10.99,1.87-7.12,4.39-14.13,5.57-21.44h2.15Z"/>
  <path class="st0" d="M398.73,846c-1.25,1.17-3.21-4.15-3.4-4.86-4.14-15.3-6.67-31.18-10.34-46.54-3.05-12.74-5.14-13.27-1.9-27.26,2.54-10.98,5.25-22.12,7.91-33.12,1.74-7.19,4.15-14.27,5.95-21.42,3.3.07,2.92,8.96,3.4,11,1.84,7.81,4.26,15.73,6.1,23.42,3.36,14.03,9.6,28.52,5.8,42.81l-13.51,55.97Z"/>
  <path class="st0" d="M683.75,879.12c2.53,5.3,2.48,11.32,3.81,16.72,3.35,13.61,7.22,26.98,10.53,40.59,3.04,12.47-.46,16.94-3.33,28.2-3.55,13.93-6.48,27.89-10.1,41.73-.64,2.44.95,5.75-3.04,5.23-.08-1.01.23-2.25-.04-3.2-4.26-14.81-7.19-30.28-10.93-45.23-2.98-11.89-5.5-12.02-2.75-25.41,3.71-18.06,9.4-36.31,14.11-54.29.47-1.78-.49-4.94,1.76-4.35Z"/>
  <path class="st0" d="M845.7,545.76c.08,1.01-.21,2.24.04,3.19,5.89,21.64,10.6,43.22,16.57,64.83l-5.65,20.34c-1.9,12.92-6.04,25.54-9.35,38.17-.41,1.56.2,6.7-2.69,6.67-2.07-2.33-1.44-5.37-2.13-7.97-5.03-18.97-9.25-38.07-14.13-57.21,2.57-15.92,7.53-31.34,11.39-46.97,1.61-6.53,2.55-13.47,4.48-20.01.31-1.05-.41-1.27,1.45-1.05Z"/>
  <path class="st0" d="M112.98,546.49c.47,4.9,2.24,9.47,3.45,14.2,3.13,12.29,5.89,24.64,8.98,37.1,3.75,15.13,5,14.99,1.08,30.94s-10.03,32.87-13.82,48.72c-.38,1.59,1.76,2.61-1.83,2.23-.56-4.38-1.21-9.73-2.24-13.97-3.58-14.82-7.47-29.57-10.93-44.5-1.84-7.95-1.38-11.25.38-19.49.87-4.06,2.45-9.28,3.51-13.77,2.78-11.8,8-25.93,9.89-37.7.24-1.48-.43-2.42-.6-3.77h2.14Z"/>
  <path class="st0" d="M113.67,879.87c2.2,9.29,4.87,18.56,7.08,27.85,2,8.44,3.43,17.17,5.28,25.67.49,2.26,2.44,5.74,2.76,8.04,1.27,9.04-6.66,31.21-9.26,41.06-1.73,6.56-2.68,13.37-4.58,19.9-.6,2.04-1.52,6.04-2.49,7.57-.47.74.04,1.26-1.62.92-.93-8.91-4.04-17.26-6.16-25.89-3.13-12.71-11.14-38.26-7.46-49.89,4.99-15.8,8.62-33.12,13.11-49.66.46-1.7,1.99-3.16,1.23-5.62l2.11.04Z"/>
  <path class="st0" d="M437.98,547.92c2.47-.49,1.6,4.57,1.95,5.96,3.19,12.8,7.34,25.51,10.46,38.49,1.69,7.03,5.26,18.02,4.32,24.86-1.68,12.23-6.2,26.27-9.11,38.41-.7,2.9-.38,5.97-.96,8.4-.51,2.13-4.55,15.64-5.95,15.63-2.77-4.7-2.78-10.72-4.15-16-1.77-6.8-3.42-13.31-5.06-20.14-2.08-8.64-7.98-24.47-6.94-32.58,1.86-14.62,9.13-29.51,10.21-44.51,1.42-2.27,4.23-18.33,5.24-18.53Z"/>
  <path class="st0" d="M846.42,879.13c.18.2-.54,1.32-.27,2.16,6.64,20.63,10.25,42,16.19,62.98-4.55,20.12-9.83,40.02-15.02,59.96-.41,1.57.08,7.36-2.69,7.39-1.85-3.05-1.32-6.6-1.99-9.55-4.4-19.37-10.96-38.49-14.28-57.78,6.06-18.19,9.37-37.32,14.07-55.83.58-2.28,1.58-6.32,2.48-8.31.28-.63.33-2.27,1.51-1.01Z"/>
  <path class="st0" d="M602.43,878.4c-.07,1.48-.03,2.91.33,4.36,3.58,14.68,7.11,29.36,9.88,44.05.7,3.69,3.65,9.18,4.15,13.19,1.4,11.2-5.14,29.05-7.8,40.36-1.03,4.39-1.72,8.67-2.75,13.09-1.41,6.05-2.66,12.16-4.17,18.16-2.92-.05-2.26-5.06-2.68-6.68-5.19-19.9-10.37-39.54-15-59.93,4.67-22.14,9.96-43.91,16.44-65.69l1.61-.91Z"/>
  <path class="st0" d="M204.18,973.97c-2.69,5.97-5.06,17.85-6.9,25.1-.73,2.91-1.47,9.12-2.4,11.28-.43,1-.84,1.46-1.99,1.24-.58-3.04-1.45-6.04-2.1-9.07-3.64-16.98-8.44-33.77-12.8-50.56-2.29-8.83-.6-7.93,1.18-15.64,3.75-16.26,8.35-32.59,12.1-49.1.19-.84,1.3-13.44,3.73-6.27,2.95,8.69,3.88,18.27,5.99,27.13,2.86,12.02,9.73,30.68,8.39,42.62-.26,2.33-4.59,21.91-5.21,23.27Z"/>
  <path class="st0" d="M765.09,545.76c.2,8.08,3.67,15.77,5.59,23.57,2.95,12.04,5.96,24.95,8.28,37.08.45,2.35,1.93,5.27,2.01,7.4.14,3.84-2.75,10.46-3.59,14.42-3.39,15.94-6.68,32.05-10.29,48.03-.27,1.18-1.25,2.14-1.28,3.41-.41.31-2.04-1.7-2.32-2.35-1.64-3.79-2.53-11-3.61-15.11-4.16-15.86-7.97-31.81-12.14-47.67,4.65-21.27,9.96-42.14,14.64-63.21.25-1.13.8-2.73,1.2-3.87s-.65-2.07,1.51-1.69Z"/>
  <path class="st0" d="M357.71,546.48c.66,3.36,1.97,6.56,2.7,9.9,2.96,13.51,5.58,28.18,9.48,41.05.92,3.02,3.71,13.05,3.73,15.64.02,3.16-2.96,14.62-3.88,18.51-3.48,14.85-7.51,31.24-11.82,45.81-.29.97.22,1.87-1.27,1.57l-5.96-19.25-.33-4.71c-4.33-13.77-7.35-27.91-10.59-41.88,3.84-15.5,8.73-30.82,12.64-46.28,1.47-5.83,3.06-12.92,3.89-19.29.13-.98.34-2.18,1.42-1.08Z"/>
  <path class="st0" d="M765.81,879.12c.7,4.28,1.36,8.92,2.36,13.12,4.17,17.56,8.86,35.08,12.79,52.74-4.26,21.99-11.23,43.38-15.16,65.41.15.78-1.48.62-1.79.5-.73-.29-3.98-12.9-4.5-14.95-3.01-12.03-5.43-24.43-8.26-36.37-.93-3.92-3.51-9.96-3.49-13.85.02-3.09,2.85-14.13,3.73-17.92,3.2-13.77,7.73-27.75,11.27-41.28.62-2.38-.8-6.98,3.04-7.39Z"/>
  <path class="st0" d="M804.69,712.8l8.46,31.48c.11,7.56,4.05,15.06,5.76,22.32,1.39,5.88,2.97,13.2,1.44,19.1-4.41,17-8.9,34.25-13.34,51.46-.72,2.8.78,5.38-2.68,7.38-2.68-1.53-1.32-3.98-1.84-6.07-4.1-16.74-10.1-34.54-13.47-51.32-2.22-11.04,3-21.05,5.42-31.68,2.81-12.32,4.49-25.71,8.26-37.82.45-1.45,2.38-2.76,1.99-4.85Z"/>
  <path class="st0" d="M362.99,903.4c1.32,5.39,3.8,12.5,5.35,18.73,1.94,7.79,3.17,15.88,5.89,23.53-2.71,7.27-3.21,15.7-5.78,22.9-1.13,3.16-.43,1.62-.78,5.05-.67,6.47-6.94,30.24-9.32,36.83-.28.78-.17,1.76-1.35,1.88,0-1.01.1-2.07-.18-3.06-6.15-21.6-12.13-43.02-16.4-64.94l15.86-64.47,1.99,1.24c2.05,7.31,2.92,14.99,4.71,22.32Z"/>
  <path class="st0" d="M195.05,547.2c.07,3.35,1.95,6.75,2.72,9.89,1.26,5.12,1.95,11.74,3.21,16.95,1.87,7.74,5.29,15.53,6.33,23.27.16,1.19-.75,2.95-.65,3.09.18.25,1.54.15,1.95,1.27.72,1.99.57,6.21.88,8.49.17,1.24,1.38,1.99,1.44,3.6.17,5.23-4.85,20.01-6.34,26.13-2.04,8.37-4.43,16.7-6.47,25.21-1.02,4.26-1.03,9.22-3,13.43l-1.86.44-15.53-63.73c5.42-22.41,10.39-44.77,15.92-66.95.26-1.04-.6-1.3,1.4-1.1Z"/>
  <path class="st0" d="M927.75,547.92c1.03,7.82,3.67,15.24,5.59,22.86,3.08,12.23,5.96,24.85,8.25,37.1,1.4,7.47,1.63,8.85-.22,16.53-3.63,15.06-7.67,33.41-12.39,48.94-.46,1.5-1.34,5.57-3.02,5.62-6.04-20.07-8.86-41.04-15.31-61.02,1.41-16.05,6.58-32.54,10.27-48.42,1.22-5.23,2.62-10.5,3.79-15.65.61-2.69-1.08-6.47,3.04-5.96Z"/>
  <path class="st0" d="M276.37,547.92l5.84,26.92c.82,2.28,2.09,5.15,2.63,7.45,1.79,7.66,7.21,27.06,6.68,33.7-.42,5.16-3.05,10.94-4.17,15.99-1.74,7.9-3.5,15.67-5.43,23.36s-3.33,14.14-4.85,21.79c-.52,2.65-2.56,2.66-3.53-.02-2.1-5.84-2.43-12.75-3.81-18.51-3.17-13.15-8.23-27.17-9.85-40.54-1.44-11.83,8.04-41.25,11.28-54.12.32-1.27.01-2.69.35-3.97.79-3.03,2.09-8.54,3.25-11.15.44-.98.09-1.13,1.6-.91Z"/>
  <path class="st0" d="M925.61,1010.16c-1.38-7.02-2.76-14.09-4.55-21.02-2.07-8.01-4.84-16.06-6.81-24.15-1.16-4.76-4.81-16.75-4.53-20.74.23-3.34,2.47-6.33,3.31-9.65,3.98-15.7,6.97-32,11.33-47.71.25-.91,2.28-8.6,3.38-7.77,2.59,12.07,5.33,24.11,8.14,36.14,1.51,6.46,3.97,13.18,5.37,19.83,4.01,19.13-6.72,41.51-10.45,60.47-.4,2.48-1.55,12.32-2.7,13.86-.77,1.02-1.37.78-2.49.74Z"/>
  <path class="st0" d="M520.38,878.4l16.6,68.02c-4.2,19.58-10.54,39.07-14.03,58.74-.27,1.52-.7,5.15-2.93,4.29-1.62-.63-4.11-15.15-4.75-17.58-3.3-12.71-6.77-25.36-9.33-38.18-.5-2.51-2.08-5.11-2.11-7.97-.07-8.27,6.36-26.35,8.46-35.44,2.22-9.6,3.26-17.88,6.33-27.51.57-1.79-.61-4.93,1.75-4.37Z"/>
  <path class="st0" d="M520.38,546.48c.01,1.01-.12,2.07.17,3.06,2.36,7.91,3.9,13.76,5.07,21.69.68,4.63,2.84,7.75,3.95,12.5.39,1.67.05,3.48.49,5.28,2.32,9.61,6.92,20.51,4.97,30.08-3.35,16.39-7.74,32.6-11.59,48.89-.57,2.43-.63,11.59-4.13,10.99-.92-.16-3.57-15.8-4.17-18.16-1.92-7.49-3.77-15.14-5.6-22.47-2.36-9.47-7.66-21.17-5.67-30.97.37-1.82,2.07-4.6,2.65-6.71,4.4-16.04,8.71-33.17,12.37-49.55.38-1.72-1.02-5.2,1.5-4.62Z"/>
</svg>